<svg xmlns="http://www.w3.org/2000/svg" xmlns:xlink="http://www.w3.org/1999/xlink" width="500" zoomAndPan="magnify" viewBox="0 0 375 374.999991" height="500" preserveAspectRatio="xMidYMid meet" version="1.0"><defs><g/><clipPath id="65489d0451"><path d="M 261 164 L 284 164 L 284 226.308594 L 261 226.308594 Z M 261 164 " clip-rule="nonzero"/></clipPath><clipPath id="7bc3741c89"><path d="M 118 61.308594 L 224 61.308594 L 224 152 L 118 152 Z M 118 61.308594 " clip-rule="nonzero"/></clipPath></defs><rect x="-37.5" width="450" fill="none" y="-37.499999" height="449.999989" fill-opacity="1"/><rect x="-37.5" width="450" fill="none" y="-37.499999" height="449.999989" fill-opacity="1"/><path fill="#3490bf" d="M 27.714844 198.132812 C 26.859375 198.734375 25.933594 199.195312 24.9375 199.511719 C 23.941406 199.828125 22.917969 199.984375 21.871094 199.984375 C 20.828125 199.984375 19.804688 199.828125 18.808594 199.511719 C 17.8125 199.195312 16.886719 198.734375 16.03125 198.132812 C 14.195312 196.867188 12.765625 195.242188 11.746094 193.257812 C 10.6875 191.257812 10.152344 189.125 10.148438 186.859375 C 10.152344 184.597656 10.675781 182.46875 11.722656 180.464844 C 12.738281 178.480469 14.160156 176.855469 15.992188 175.589844 C 16.851562 174.984375 17.785156 174.523438 18.785156 174.207031 C 19.789062 173.890625 20.816406 173.730469 21.867188 173.730469 C 22.917969 173.730469 23.945312 173.890625 24.945312 174.207031 C 25.949219 174.523438 26.878906 174.984375 27.738281 175.589844 C 28.710938 176.261719 29.5625 177.066406 30.296875 177.992188 L 37.457031 170.585938 C 36.066406 169.089844 34.503906 167.8125 32.765625 166.746094 C 31.125 165.726562 29.375 164.957031 27.515625 164.433594 C 25.660156 163.90625 23.765625 163.652344 21.835938 163.664062 C 19.902344 163.652344 18.003906 163.910156 16.144531 164.433594 C 14.285156 164.957031 12.535156 165.730469 10.890625 166.746094 C 7.492188 168.863281 4.828125 171.679688 2.902344 175.191406 C 1.9375 176.988281 1.207031 178.875 0.707031 180.851562 C 0.210938 182.828125 -0.0390625 184.835938 -0.0390625 186.875 C -0.0390625 188.910156 0.210938 190.917969 0.707031 192.894531 C 1.207031 194.871094 1.9375 196.757812 2.902344 198.554688 C 4.820312 202.070312 7.480469 204.875 10.890625 206.972656 C 12.535156 207.992188 14.285156 208.765625 16.144531 209.292969 C 18.003906 209.820312 19.902344 210.078125 21.835938 210.070312 C 23.765625 210.078125 25.660156 209.820312 27.519531 209.296875 C 29.375 208.769531 31.125 207.996094 32.765625 206.972656 C 34.527344 205.875 36.113281 204.5625 37.519531 203.03125 L 30.359375 195.613281 C 29.609375 196.589844 28.726562 197.429688 27.714844 198.132812 Z M 27.714844 198.132812 " fill-opacity="1" fill-rule="nonzero"/><path fill="#3490bf" d="M 70.984375 166.722656 C 69.199219 165.707031 67.316406 164.9375 65.328125 164.414062 C 63.34375 163.886719 61.324219 163.625 59.269531 163.625 C 57.214844 163.625 55.195312 163.886719 53.210938 164.414062 C 51.226562 164.9375 49.339844 165.707031 47.554688 166.722656 C 43.953125 168.78125 41.097656 171.59375 38.988281 175.167969 C 37.9375 176.933594 37.140625 178.8125 36.597656 180.796875 C 36.054688 182.78125 35.789062 184.800781 35.792969 186.859375 C 35.777344 188.914062 36.039062 190.929688 36.574219 192.910156 C 37.109375 194.890625 37.902344 196.765625 38.949219 198.527344 C 39.34375 199.183594 39.765625 199.820312 40.21875 200.433594 C 40.667969 201.050781 41.152344 201.640625 41.660156 202.207031 C 42.171875 202.777344 42.707031 203.320312 43.269531 203.835938 C 43.832031 204.351562 44.417969 204.839844 45.027344 205.296875 C 45.636719 205.757812 46.269531 206.1875 46.917969 206.585938 C 47.570312 206.984375 48.238281 207.347656 48.925781 207.683594 C 49.613281 208.015625 50.3125 208.316406 51.03125 208.582031 C 51.746094 208.847656 52.472656 209.078125 53.210938 209.269531 C 53.949219 209.464844 54.695312 209.625 55.445312 209.746094 C 56.199219 209.871094 56.957031 209.957031 57.71875 210.003906 C 58.480469 210.054688 59.242188 210.066406 60.003906 210.042969 C 60.769531 210.019531 61.527344 209.957031 62.285156 209.859375 C 63.042969 209.761719 63.792969 209.625 64.535156 209.453125 C 65.28125 209.285156 66.011719 209.078125 66.738281 208.835938 C 67.460938 208.59375 68.171875 208.316406 68.867188 208.003906 C 69.566406 207.695312 70.246094 207.351562 70.910156 206.972656 C 74.519531 204.933594 77.359375 202.121094 79.4375 198.527344 C 80.488281 196.765625 81.28125 194.894531 81.816406 192.910156 C 82.351562 190.929688 82.613281 188.914062 82.59375 186.859375 C 82.621094 184.808594 82.371094 182.789062 81.847656 180.804688 C 81.324219 178.820312 80.546875 176.941406 79.511719 175.167969 C 77.425781 171.589844 74.582031 168.773438 70.984375 166.722656 Z M 70.117188 193.246094 C 68.992188 195.269531 67.460938 196.90625 65.515625 198.15625 C 64.582031 198.757812 63.582031 199.214844 62.515625 199.527344 C 61.449219 199.84375 60.363281 200 59.25 200 C 58.140625 200 57.050781 199.84375 55.988281 199.527344 C 54.921875 199.214844 53.921875 198.757812 52.988281 198.15625 C 51.050781 196.90625 49.527344 195.269531 48.421875 193.246094 C 47.863281 192.273438 47.4375 191.242188 47.144531 190.160156 C 46.855469 189.074219 46.710938 187.96875 46.710938 186.847656 C 46.710938 185.726562 46.855469 184.621094 47.144531 183.535156 C 47.4375 182.453125 47.863281 181.421875 48.421875 180.449219 C 49.523438 178.417969 51.054688 176.789062 53.011719 175.5625 C 54.921875 174.324219 57.015625 173.710938 59.289062 173.722656 C 61.566406 173.71875 63.664062 174.332031 65.578125 175.5625 C 67.511719 176.804688 69.035156 178.433594 70.140625 180.449219 C 71.269531 182.433594 71.832031 184.566406 71.828125 186.847656 C 71.816406 189.128906 71.246094 191.261719 70.117188 193.246094 Z M 70.117188 193.246094 " fill-opacity="1" fill-rule="nonzero"/><path fill="#3490bf" d="M 117.992188 171.007812 C 115.789062 168.996094 113.300781 167.441406 110.523438 166.351562 C 107.589844 165.203125 104.546875 164.640625 101.398438 164.664062 L 85.558594 164.664062 L 85.558594 209.03125 L 101.398438 209.03125 C 104.535156 209.058594 107.566406 208.496094 110.488281 207.34375 C 113.285156 206.261719 115.789062 204.699219 117.992188 202.660156 C 120.144531 200.632812 121.824219 198.265625 123.027344 195.558594 C 124.253906 192.789062 124.855469 189.890625 124.828125 186.859375 C 124.847656 183.816406 124.246094 180.898438 123.027344 178.109375 C 121.832031 175.398438 120.152344 173.03125 117.992188 171.007812 Z M 112.558594 191.683594 C 111.886719 193.238281 110.949219 194.613281 109.746094 195.804688 C 108.523438 197.027344 107.117188 197.976562 105.527344 198.65625 C 103.890625 199.339844 102.1875 199.683594 100.414062 199.679688 L 96.871094 199.679688 L 96.871094 174.089844 L 100.402344 174.089844 C 102.175781 174.09375 103.878906 174.4375 105.515625 175.128906 C 107.097656 175.78125 108.503906 176.707031 109.730469 177.90625 C 110.914062 179.085938 111.835938 180.449219 112.492188 181.984375 C 113.152344 183.542969 113.488281 185.167969 113.503906 186.859375 C 113.519531 188.53125 113.203125 190.140625 112.558594 191.683594 Z M 112.558594 191.683594 " fill-opacity="1" fill-rule="nonzero"/><path fill="#3490bf" d="M 127.667969 209.082031 L 155.816406 209.082031 L 155.816406 199.730469 L 138.535156 199.730469 L 138.535156 191.160156 L 149.847656 191.160156 L 147.316406 181.820312 L 138.535156 181.820312 L 138.535156 174.117188 L 155.816406 174.117188 L 155.816406 164.714844 L 127.667969 164.714844 Z M 127.667969 209.082031 " fill-opacity="1" fill-rule="nonzero"/><path fill="#000000" d="M 194.945312 185.144531 L 166.695312 164.035156 L 166.695312 208.941406 L 177.636719 208.941406 L 177.597656 186.398438 L 205.8125 209.070312 L 205.8125 164.726562 L 194.945312 164.664062 Z M 194.945312 185.144531 " fill-opacity="1" fill-rule="nonzero"/><path fill="#000000" d="M 211.476562 209.03125 L 222.339844 209.070312 L 222.339844 164.726562 L 211.476562 164.726562 Z M 211.476562 209.03125 " fill-opacity="1" fill-rule="nonzero"/><path fill="#000000" d="M 267.121094 209.046875 L 267.121094 164.714844 L 256.253906 164.648438 L 256.253906 185.132812 L 228.003906 164.023438 L 228.003906 208.929688 L 238.933594 208.929688 L 238.910156 186.375 Z M 267.121094 209.046875 " fill-opacity="1" fill-rule="nonzero"/><g clip-path="url(#65489d0451)"><path fill="#000000" d="M 272.875 207.035156 C 272.777344 207.753906 272.640625 208.460938 272.464844 209.160156 C 271.808594 211.175781 270.6875 212.882812 269.089844 214.277344 C 267.449219 215.746094 265.5625 216.75 263.425781 217.285156 L 263.210938 217.285156 L 262.8125 217.347656 C 262.367188 217.4375 261.917969 217.515625 261.433594 217.566406 L 261.433594 227.109375 C 263.003906 227.027344 264.554688 226.8125 266.085938 226.457031 C 270.03125 225.519531 273.511719 223.695312 276.53125 220.980469 C 279.445312 218.445312 281.488281 215.332031 282.652344 211.644531 C 283.054688 210.300781 283.292969 208.933594 283.367188 207.535156 L 283.367188 164.726562 L 272.835938 164.726562 Z M 272.875 207.035156 " fill-opacity="1" fill-rule="nonzero"/></g><path fill="#000000" d="M 284.953125 209.03125 L 296.179688 209.03125 L 300.511719 201.152344 L 318.230469 201.152344 L 322.574219 209.03125 L 333.785156 209.03125 L 309.355469 164.035156 Z M 305.011719 192.964844 L 309.355469 185.082031 L 313.703125 192.964844 Z M 305.011719 192.964844 " fill-opacity="1" fill-rule="nonzero"/><path fill="#000000" d="M 358.765625 186.515625 C 357.191406 184.648438 355.277344 183.265625 353.011719 182.355469 C 350.828125 181.523438 348.691406 180.667969 346.621094 179.796875 C 344.550781 178.929688 343.554688 177.738281 343.554688 176.242188 C 343.550781 175.722656 343.675781 175.234375 343.925781 174.78125 C 344.175781 174.324219 344.519531 173.957031 344.960938 173.683594 C 345.8125 173.046875 346.773438 172.726562 347.835938 172.722656 C 349.109375 172.695312 350.320312 172.964844 351.464844 173.527344 C 352.714844 174.226562 353.847656 175.078125 354.867188 176.085938 L 360.210938 168.410156 C 358.492188 166.746094 356.523438 165.464844 354.304688 164.574219 C 352.136719 163.710938 349.886719 163.285156 347.554688 163.292969 C 345.101562 163.277344 342.78125 163.820312 340.585938 164.917969 C 338.363281 166 336.582031 167.582031 335.242188 169.664062 C 333.816406 171.894531 333.128906 174.335938 333.1875 176.984375 C 333.1875 180.640625 333.976562 183.382812 335.5625 185.210938 C 337.125 187.066406 339.03125 188.453125 341.277344 189.367188 L 342.925781 190.058594 L 344.5625 190.710938 L 347.746094 192.054688 C 349.804688 192.964844 350.839844 194.164062 350.839844 195.6875 C 350.863281 196.296875 350.722656 196.867188 350.425781 197.394531 C 350.125 197.925781 349.710938 198.335938 349.175781 198.632812 C 348.097656 199.304688 346.921875 199.644531 345.648438 199.65625 C 344.933594 199.675781 344.230469 199.609375 343.53125 199.460938 C 342.832031 199.3125 342.160156 199.085938 341.515625 198.777344 C 340.875 198.464844 340.273438 198.085938 339.722656 197.632812 C 339.167969 197.179688 338.679688 196.667969 338.246094 196.097656 L 332.367188 204.476562 C 334.195312 206.238281 336.296875 207.554688 338.683594 208.417969 C 341.066406 209.285156 343.523438 209.710938 346.058594 209.699219 C 348.042969 209.773438 349.972656 209.480469 351.84375 208.816406 C 353.71875 208.152344 355.402344 207.167969 356.898438 205.859375 C 359.753906 203.300781 361.179688 199.648438 361.179688 194.90625 C 361.171875 191.230469 360.367188 188.433594 358.765625 186.515625 Z M 358.765625 186.515625 " fill-opacity="1" fill-rule="nonzero"/><path fill="#d7c19b" d="M 143.390625 97.363281 C 142.675781 100.328125 142.347656 103.335938 142.40625 106.386719 C 142.480469 109.398438 142.816406 112.386719 143.417969 115.339844 C 155.765625 114.125 168.144531 113.550781 180.550781 113.613281 L 180.550781 99.539062 C 168.121094 99.542969 155.734375 98.820312 143.390625 97.363281 Z M 143.390625 97.363281 " fill-opacity="1" fill-rule="nonzero"/><path fill="#e3d5b2" d="M 218.75 106.386719 C 218.6875 103.371094 218.355469 100.382812 217.75 97.429688 C 205.410156 98.980469 193.015625 99.699219 180.578125 99.589844 L 180.578125 113.664062 C 191.609375 113.664062 204.34375 114.113281 217.648438 115.457031 L 217.75 115.457031 C 218.46875 112.476562 218.800781 109.449219 218.75 106.386719 Z M 218.75 106.386719 " fill-opacity="1" fill-rule="nonzero"/><g clip-path="url(#7bc3741c89)"><path fill="#010101" d="M 180.550781 60.785156 C 159.253906 60.785156 141.550781 76.921875 137.882812 98.195312 C 134.261719 95.113281 128.023438 92.375 118.847656 96.917969 C 118.644531 97.011719 118.46875 97.148438 118.328125 97.324219 C 118.1875 97.5 118.089844 97.695312 118.039062 97.914062 C 117.988281 98.136719 117.988281 98.355469 118.035156 98.574219 C 118.085938 98.796875 118.183594 98.992188 118.324219 99.167969 C 120.242188 101.574219 124.714844 106.179688 131.324219 106.269531 C 127.285156 108.625 122.925781 113.382812 123.949219 122.902344 C 123.980469 123.144531 124.0625 123.367188 124.191406 123.574219 C 124.324219 123.777344 124.492188 123.945312 124.699219 124.078125 C 124.90625 124.207031 125.128906 124.285156 125.371094 124.316406 C 125.613281 124.34375 125.851562 124.320312 126.082031 124.246094 C 129.316406 123.210938 135.796875 120.304688 137.691406 113.371094 C 140.871094 135.25 158.847656 151.996094 180.550781 151.996094 C 204.507812 151.996094 223.925781 131.527344 223.925781 106.398438 C 223.925781 81.269531 204.535156 60.785156 180.550781 60.785156 Z M 217.625 115.40625 C 204.289062 114.125 191.558594 113.613281 180.550781 113.613281 C 168.144531 113.550781 155.765625 114.125 143.417969 115.339844 C 142.816406 112.386719 142.480469 109.398438 142.40625 106.386719 C 142.351562 103.359375 142.679688 100.371094 143.390625 97.429688 C 155.734375 98.898438 168.121094 99.640625 180.550781 99.65625 C 192.992188 99.761719 205.382812 99.042969 217.726562 97.492188 C 218.328125 100.449219 218.660156 103.433594 218.722656 106.449219 C 218.773438 109.476562 218.449219 112.460938 217.75 115.40625 Z M 217.625 115.40625 " fill-opacity="1" fill-rule="nonzero"/></g><path fill="#434345" d="M 146.074219 124.347656 C 146.074219 124.347656 154.769531 144.523438 176.449219 146.917969 C 178.859375 147.164062 181.269531 147.175781 183.679688 146.949219 C 186.09375 146.726562 188.460938 146.269531 190.785156 145.582031 C 193.105469 144.894531 195.339844 143.984375 197.488281 142.863281 C 199.632812 141.738281 201.648438 140.414062 203.535156 138.894531 C 203.535156 138.894531 168.179688 152.90625 146.074219 124.347656 Z M 146.074219 124.347656 " fill-opacity="1" fill-rule="nonzero"/><path fill="#434345" d="M 214.582031 88.933594 C 214.582031 88.933594 205.890625 68.808594 184.222656 66.417969 C 181.8125 66.167969 179.402344 66.160156 176.988281 66.382812 C 174.578125 66.609375 172.210938 67.066406 169.886719 67.753906 C 167.5625 68.441406 165.328125 69.347656 163.183594 70.472656 C 161.039062 71.597656 159.019531 72.917969 157.132812 74.4375 C 157.132812 74.4375 192.480469 60.453125 214.582031 88.933594 Z M 214.582031 88.933594 " fill-opacity="1" fill-rule="nonzero"/><path fill="#010101" d="M 168.511719 105.414062 L 154.679688 103.75 C 154.324219 103.699219 154.058594 103.832031 153.886719 104.144531 C 153.710938 104.460938 153.742188 104.753906 153.976562 105.027344 C 159.371094 111.425781 165.953125 108.523438 168.84375 106.691406 C 168.972656 106.613281 169.0625 106.503906 169.121094 106.367188 C 169.179688 106.230469 169.191406 106.085938 169.15625 105.941406 C 169.121094 105.792969 169.046875 105.671875 168.929688 105.574219 C 168.816406 105.476562 168.683594 105.425781 168.535156 105.414062 Z M 168.511719 105.414062 " fill-opacity="1" fill-rule="nonzero"/><path fill="#010101" d="M 192.324219 106.679688 C 195.203125 108.507812 201.785156 111.476562 207.179688 105.015625 C 207.410156 104.746094 207.441406 104.453125 207.269531 104.140625 C 207.101562 103.828125 206.84375 103.691406 206.488281 103.738281 L 192.621094 105.398438 C 192.472656 105.414062 192.339844 105.46875 192.226562 105.566406 C 192.117188 105.664062 192.042969 105.789062 192.011719 105.933594 C 191.976562 106.078125 191.988281 106.21875 192.046875 106.355469 C 192.105469 106.496094 192.199219 106.601562 192.324219 106.679688 Z M 192.324219 106.679688 " fill-opacity="1" fill-rule="nonzero"/><path fill="#221f1f" d="M 375 169.535156 C 375.011719 170.371094 374.863281 171.175781 374.542969 171.945312 C 374.226562 172.71875 373.769531 173.394531 373.171875 173.976562 C 372.882812 174.269531 372.570312 174.53125 372.230469 174.757812 C 371.890625 174.988281 371.53125 175.183594 371.152344 175.339844 C 370.773438 175.5 370.382812 175.617188 369.980469 175.699219 C 369.578125 175.78125 369.171875 175.820312 368.761719 175.820312 C 368.351562 175.820312 367.945312 175.78125 367.542969 175.699219 C 367.140625 175.617188 366.75 175.5 366.371094 175.339844 C 365.992188 175.183594 365.632812 174.988281 365.292969 174.757812 C 364.953125 174.53125 364.640625 174.269531 364.351562 173.976562 C 363.914062 173.539062 363.550781 173.046875 363.257812 172.5 C 362.964844 171.953125 362.757812 171.375 362.636719 170.765625 C 362.515625 170.160156 362.484375 169.546875 362.542969 168.929688 C 362.605469 168.3125 362.753906 167.71875 362.988281 167.144531 C 363.222656 166.574219 363.539062 166.046875 363.929688 165.566406 C 364.320312 165.085938 364.773438 164.671875 365.285156 164.324219 C 365.800781 163.980469 366.351562 163.714844 366.945312 163.53125 C 367.535156 163.351562 368.140625 163.257812 368.761719 163.253906 C 369.171875 163.253906 369.582031 163.296875 369.984375 163.375 C 370.386719 163.457031 370.777344 163.574219 371.15625 163.734375 C 371.539062 163.890625 371.898438 164.085938 372.238281 164.316406 C 372.582031 164.542969 372.898438 164.804688 373.1875 165.097656 C 373.476562 165.390625 373.734375 165.707031 373.960938 166.050781 C 374.1875 166.394531 374.378906 166.753906 374.535156 167.136719 C 374.691406 167.515625 374.808594 167.910156 374.886719 168.3125 C 374.964844 168.71875 375.003906 169.125 375 169.535156 Z M 365.375 166.109375 C 364.914062 166.558594 364.5625 167.082031 364.320312 167.679688 C 364.074219 168.273438 363.957031 168.894531 363.96875 169.535156 C 363.957031 170.179688 364.074219 170.796875 364.316406 171.390625 C 364.5625 171.984375 364.914062 172.503906 365.375 172.953125 C 365.816406 173.417969 366.328125 173.769531 366.917969 174.019531 C 367.507812 174.265625 368.121094 174.382812 368.761719 174.375 C 369.078125 174.371094 369.390625 174.339844 369.703125 174.277344 C 370.011719 174.214844 370.3125 174.125 370.605469 174 C 370.898438 173.878906 371.175781 173.730469 371.4375 173.554688 C 371.699219 173.375 371.941406 173.175781 372.164062 172.953125 C 372.390625 172.726562 372.589844 172.484375 372.761719 172.21875 C 372.9375 171.957031 373.085938 171.675781 373.207031 171.382812 C 373.328125 171.089844 373.417969 170.789062 373.476562 170.476562 C 373.539062 170.167969 373.570312 169.855469 373.566406 169.535156 C 373.578125 168.894531 373.460938 168.273438 373.214844 167.679688 C 372.972656 167.082031 372.621094 166.558594 372.160156 166.109375 C 371.71875 165.648438 371.199219 165.292969 370.609375 165.046875 C 370.019531 164.800781 369.402344 164.679688 368.761719 164.6875 C 368.121094 164.679688 367.507812 164.800781 366.917969 165.050781 C 366.328125 165.296875 365.8125 165.65625 365.375 166.121094 Z M 366.589844 172.785156 L 366.589844 166.390625 L 368.390625 166.390625 C 368.855469 166.386719 369.304688 166.453125 369.746094 166.59375 C 370.117188 166.707031 370.414062 166.921875 370.640625 167.234375 C 370.871094 167.582031 370.976562 167.96875 370.960938 168.386719 C 370.964844 168.746094 370.871094 169.078125 370.679688 169.382812 C 370.503906 169.691406 370.253906 169.90625 369.925781 170.035156 L 371.535156 172.851562 L 369.683594 172.851562 L 368.160156 169.921875 L 368.160156 172.800781 Z M 368.160156 169.535156 C 368.390625 169.546875 368.609375 169.511719 368.824219 169.433594 C 369 169.386719 369.132812 169.289062 369.234375 169.140625 C 369.335938 168.972656 369.382812 168.789062 369.375 168.589844 C 369.410156 168.304688 369.3125 168.082031 369.082031 167.914062 C 368.789062 167.777344 368.480469 167.71875 368.160156 167.734375 Z M 368.160156 169.535156 " fill-opacity="1" fill-rule="nonzero"/><g fill="#000000" fill-opacity="1"><g transform="translate(116.179684, 253.262503)"><g><path d="M 0.0625 0 L 9.296875 -22.8125 L 15.6875 -22.8125 L 24.921875 0 L 17.859375 0 L 16.25 -4.65625 L 8.4375 -4.65625 L 6.765625 0 Z M 12.4375 -15.875 L 12.375 -15.875 C 11.957031 -14.46875 11.488281 -13.050781 10.96875 -11.625 L 10.171875 -9.453125 L 14.578125 -9.453125 L 13.828125 -11.625 C 13.554688 -12.394531 13.3125 -13.117188 13.09375 -13.796875 C 12.882812 -14.472656 12.664062 -15.164062 12.4375 -15.875 Z M 12.4375 -15.875 "/></g></g></g><g fill="#000000" fill-opacity="1"><g transform="translate(141.159217, 253.262503)"><g><path d="M 3.40625 -3.375 C 2.207031 -5.050781 1.609375 -7.523438 1.609375 -10.796875 L 1.609375 -22.8125 L 8.09375 -22.8125 L 8.09375 -11.1875 C 8.09375 -10.09375 8.160156 -9.195312 8.296875 -8.5 C 8.429688 -7.8125 8.660156 -7.242188 8.984375 -6.796875 C 9.296875 -6.359375 9.726562 -6 10.28125 -5.71875 C 10.84375 -5.4375 11.507812 -5.296875 12.28125 -5.296875 C 13 -5.296875 13.613281 -5.414062 14.125 -5.65625 C 14.644531 -5.894531 15.070312 -6.210938 15.40625 -6.609375 C 16.113281 -7.472656 16.46875 -9 16.46875 -11.1875 L 16.46875 -22.8125 L 22.71875 -22.8125 L 22.71875 -10.796875 C 22.71875 -9.078125 22.550781 -7.601562 22.21875 -6.375 C 21.894531 -5.144531 21.421875 -4.113281 20.796875 -3.28125 C 19.953125 -2.144531 18.78125 -1.253906 17.28125 -0.609375 C 15.78125 0.0234375 14.070312 0.34375 12.15625 0.34375 C 10.289062 0.34375 8.578125 0.03125 7.015625 -0.59375 C 5.460938 -1.226562 4.257812 -2.15625 3.40625 -3.375 Z M 3.40625 -3.375 "/></g></g></g><g fill="#000000" fill-opacity="1"><g transform="translate(165.477247, 253.262503)"><g><path d="M 1.796875 0 L 1.796875 -22.8125 L 9.765625 -22.8125 C 12.515625 -22.8125 14.644531 -22.429688 16.15625 -21.671875 C 17.269531 -21.148438 18.160156 -20.398438 18.828125 -19.421875 C 19.503906 -18.441406 19.84375 -17.207031 19.84375 -15.71875 C 19.84375 -14.3125 19.5 -13.085938 18.8125 -12.046875 C 18.132812 -11.003906 17.082031 -10.179688 15.65625 -9.578125 L 21.703125 0 L 14.359375 0 L 9.296875 -8.65625 L 8.28125 -8.65625 L 8.28125 0 Z M 8.28125 -13.109375 L 9.890625 -13.109375 C 11.085938 -13.109375 11.9375 -13.265625 12.4375 -13.578125 C 13.050781 -13.929688 13.359375 -14.53125 13.359375 -15.375 C 13.359375 -15.851562 13.253906 -16.25 13.046875 -16.5625 C 12.847656 -16.882812 12.582031 -17.117188 12.25 -17.265625 C 11.976562 -17.390625 11.628906 -17.484375 11.203125 -17.546875 C 10.785156 -17.609375 10.210938 -17.640625 9.484375 -17.640625 L 8.28125 -17.640625 Z M 8.28125 -13.109375 "/></g></g></g><g fill="#000000" fill-opacity="1"><g transform="translate(186.456269, 253.262503)"><g><path d="M 1.015625 -11.40625 C 1.015625 -13.039062 1.320312 -14.570312 1.9375 -16 C 2.550781 -17.425781 3.414062 -18.675781 4.53125 -19.75 C 5.644531 -20.820312 6.9375 -21.65625 8.40625 -22.25 C 9.875 -22.851562 11.472656 -23.15625 13.203125 -23.15625 C 14.921875 -23.15625 16.519531 -22.851562 18 -22.25 C 19.476562 -21.65625 20.769531 -20.820312 21.875 -19.75 C 22.976562 -18.675781 23.835938 -17.425781 24.453125 -16 C 25.078125 -14.570312 25.390625 -13.039062 25.390625 -11.40625 C 25.390625 -9.769531 25.078125 -8.234375 24.453125 -6.796875 C 23.835938 -5.367188 22.976562 -4.117188 21.875 -3.046875 C 20.769531 -1.984375 19.476562 -1.148438 18 -0.546875 C 16.519531 0.046875 14.921875 0.34375 13.203125 0.34375 C 11.472656 0.34375 9.875 0.046875 8.40625 -0.546875 C 6.9375 -1.148438 5.644531 -1.984375 4.53125 -3.046875 C 3.414062 -4.117188 2.550781 -5.367188 1.9375 -6.796875 C 1.320312 -8.234375 1.015625 -9.769531 1.015625 -11.40625 Z M 7.5 -11.40625 C 7.5 -10.3125 7.75 -9.3125 8.25 -8.40625 C 8.757812 -7.507812 9.441406 -6.796875 10.296875 -6.265625 C 11.160156 -5.742188 12.128906 -5.484375 13.203125 -5.484375 C 14.273438 -5.484375 15.238281 -5.742188 16.09375 -6.265625 C 16.957031 -6.796875 17.640625 -7.507812 18.140625 -8.40625 C 18.648438 -9.3125 18.90625 -10.3125 18.90625 -11.40625 C 18.90625 -12.519531 18.648438 -13.519531 18.140625 -14.40625 C 17.640625 -15.300781 16.957031 -16.007812 16.09375 -16.53125 C 15.238281 -17.0625 14.273438 -17.328125 13.203125 -17.328125 C 12.128906 -17.328125 11.160156 -17.0625 10.296875 -16.53125 C 9.441406 -16.007812 8.757812 -15.300781 8.25 -14.40625 C 7.75 -13.519531 7.5 -12.519531 7.5 -11.40625 Z M 7.5 -11.40625 "/></g></g></g><g fill="#000000" fill-opacity="1"><g transform="translate(212.853301, 253.262503)"><g><path d="M 1.796875 0 L 1.796875 -22.8125 L 9.765625 -22.8125 C 12.515625 -22.8125 14.644531 -22.429688 16.15625 -21.671875 C 17.269531 -21.148438 18.160156 -20.398438 18.828125 -19.421875 C 19.503906 -18.441406 19.84375 -17.207031 19.84375 -15.71875 C 19.84375 -14.3125 19.5 -13.085938 18.8125 -12.046875 C 18.132812 -11.003906 17.082031 -10.179688 15.65625 -9.578125 L 21.703125 0 L 14.359375 0 L 9.296875 -8.65625 L 8.28125 -8.65625 L 8.28125 0 Z M 8.28125 -13.109375 L 9.890625 -13.109375 C 11.085938 -13.109375 11.9375 -13.265625 12.4375 -13.578125 C 13.050781 -13.929688 13.359375 -14.53125 13.359375 -15.375 C 13.359375 -15.851562 13.253906 -16.25 13.046875 -16.5625 C 12.847656 -16.882812 12.582031 -17.117188 12.25 -17.265625 C 11.976562 -17.390625 11.628906 -17.484375 11.203125 -17.546875 C 10.785156 -17.609375 10.210938 -17.640625 9.484375 -17.640625 L 8.28125 -17.640625 Z M 8.28125 -13.109375 "/></g></g></g><g fill="#000000" fill-opacity="1"><g transform="translate(233.832323, 253.262503)"><g><path d="M 0.0625 0 L 9.296875 -22.8125 L 15.6875 -22.8125 L 24.921875 0 L 17.859375 0 L 16.25 -4.65625 L 8.4375 -4.65625 L 6.765625 0 Z M 12.4375 -15.875 L 12.375 -15.875 C 11.957031 -14.46875 11.488281 -13.050781 10.96875 -11.625 L 10.171875 -9.453125 L 14.578125 -9.453125 L 13.828125 -11.625 C 13.554688 -12.394531 13.3125 -13.117188 13.09375 -13.796875 C 12.882812 -14.472656 12.664062 -15.164062 12.4375 -15.875 Z M 12.4375 -15.875 "/></g></g></g></svg>