<svg width="500" height="500" viewBox="0 0 500 500" fill="none" xmlns="http://www.w3.org/2000/svg">
<g clip-path="url(#clip0_15_3)">
<path d="M252.8 58.4C355.9 58.4 439.4 142 439.4 245C439.4 348 355.8 431.6 252.8 431.6C149.8 431.6 66.1 348.1 66.1 245C66.1 141.9 149.7 58.4 252.8 58.4Z" fill="#3737C4"/>
<path d="M409.08 227.475C407.954 227.382 407.075 227.663 406.445 228.316C405.803 228.97 405.489 230.063 405.502 231.597C405.511 232.575 405.631 233.392 405.864 234.049C406.097 234.694 406.414 235.197 406.815 235.557C407.216 235.906 407.678 236.124 408.202 236.21C408.612 236.309 408.987 236.3 409.326 236.183C409.655 236.055 409.954 235.82 410.224 235.476C410.493 235.122 410.734 234.659 410.945 234.089C411.155 233.508 411.342 232.819 411.506 232.022L412.096 229.289C412.488 227.422 413.014 225.855 413.674 224.588C414.322 223.309 415.097 222.302 416 221.567C416.902 220.832 417.915 220.346 419.038 220.109C420.161 219.86 421.388 219.844 422.72 220.059C425.018 220.426 426.969 221.3 428.572 222.684C430.175 224.068 431.402 225.881 432.251 228.124C433.1 230.366 433.538 232.965 433.564 235.919C433.59 238.942 433.164 241.514 432.285 243.635C431.394 245.746 430.021 247.28 428.166 248.24C426.299 249.188 423.909 249.436 420.996 248.985L420.917 239.985C421.986 240.112 422.883 239.99 423.607 239.62C424.331 239.25 424.877 238.66 425.245 237.85C425.613 237.04 425.792 236.033 425.781 234.828C425.772 233.806 425.639 232.932 425.383 232.207C425.127 231.482 424.775 230.911 424.328 230.494C423.881 230.078 423.373 229.827 422.805 229.741C422.281 229.654 421.816 229.749 421.409 230.026C421.003 230.302 420.638 230.8 420.314 231.518C419.991 232.237 419.699 233.223 419.437 234.475L418.716 237.822C418.06 240.794 416.955 243.043 415.4 244.568C413.845 246.093 411.703 246.646 408.971 246.226C406.741 245.882 404.79 244.985 403.118 243.533C401.435 242.071 400.123 240.207 399.182 237.943C398.231 235.667 397.743 233.143 397.718 230.37C397.693 227.552 398.144 225.19 399.071 223.284C399.997 221.367 401.309 219.986 403.006 219.141C404.703 218.286 406.701 218.041 409 218.407L409.08 227.475Z" fill="white"/>
<path d="M427.426 288.797L393.882 277.529L395.388 268.172L408.954 272.703L409.029 272.232L397.132 257.334L398.887 246.429L411.96 263.035L432.475 257.428L430.677 268.603L416.864 272.042L420.352 276.54L428.932 279.44L427.426 288.797Z" fill="white"/>
<path d="M407.007 286.697L403.087 295.325C402.38 294.93 401.699 294.67 401.044 294.547C400.388 294.424 399.769 294.442 399.185 294.601C398.59 294.755 398.05 295.065 397.564 295.531C397.078 295.996 396.656 296.622 396.299 297.408C395.612 298.919 395.376 300.441 395.591 301.973C395.795 303.502 396.417 304.976 397.456 306.397C398.485 307.813 399.887 309.124 401.661 310.33C403.391 311.466 404.933 312.179 406.287 312.469C407.645 312.749 408.812 312.625 409.789 312.095C410.771 311.555 411.558 310.633 412.15 309.33C412.545 308.461 412.804 307.617 412.926 306.799C413.053 305.97 413.054 305.185 412.93 304.442C412.8 303.684 412.558 302.981 412.203 302.333C411.843 301.67 411.381 301.079 410.818 300.561L414.767 291.871C415.961 292.813 417.069 294.028 418.091 295.516C419.102 296.999 419.892 298.681 420.46 300.561C421.018 302.438 421.245 304.451 421.142 306.601C421.039 308.75 420.47 310.963 419.436 313.239C418.082 316.219 416.262 318.494 413.976 320.064C411.694 321.623 409.081 322.32 406.135 322.155C403.194 321.98 400.056 320.784 396.719 318.569C393.506 316.41 391.113 313.943 389.54 311.169C387.967 308.395 387.141 305.517 387.061 302.534C386.98 299.552 387.565 296.685 388.816 293.933C389.761 291.854 390.881 290.116 392.177 288.72C393.478 287.314 394.912 286.287 396.479 285.639C398.041 284.976 399.71 284.723 401.486 284.881C403.261 285.039 405.102 285.644 407.007 286.697Z" fill="white"/>
<path d="M396.29 352.427L390.593 360.92L371.251 327.09L378.468 316.332L410.648 331.024L404.951 339.517L382.045 328.256L381.893 328.483L396.29 352.427ZM385.081 344.414L395.792 328.447L400.997 333.417L390.286 349.384L385.081 344.414Z" fill="white"/>
<path d="M362.301 388.166L342.838 358.612L349.792 352.174L357.405 363.709L366.611 355.185L358.998 343.651L365.952 337.212L385.416 366.765L378.461 373.204L370.848 361.669L361.642 370.192L369.256 381.727L362.301 388.166Z" fill="white"/>
<path d="M335.935 379.313C335.625 378.795 335.276 378.379 334.89 378.064C334.498 377.739 334.063 377.519 333.585 377.402C333.102 377.276 332.576 377.266 332.007 377.373C331.443 377.465 330.831 377.677 330.171 378.008C328.749 378.72 327.624 379.71 326.797 380.976C325.97 382.242 325.481 383.714 325.33 385.391C325.189 387.063 325.424 388.877 326.036 390.833C326.648 392.815 327.406 394.392 328.312 395.565C329.218 396.738 330.265 397.459 331.455 397.727C332.654 397.99 333.981 397.758 335.433 397.03C336.734 396.378 337.762 395.627 338.519 394.778C339.275 393.928 339.765 393.016 339.987 392.04C340.21 391.064 340.158 390.073 339.832 389.067L341.371 388.486L334.24 392.061L332.19 385.537L346.027 378.603L347.495 383.282C348.454 386.36 348.667 389.298 348.136 392.093C347.61 394.874 346.474 397.375 344.728 399.597C342.977 401.81 340.735 403.601 338.002 404.97C334.975 406.488 332.096 407.123 329.367 406.877C326.638 406.63 324.228 405.537 322.138 403.598C320.057 401.653 318.461 398.9 317.35 395.339C316.484 392.545 316.11 389.872 316.23 387.321C316.359 384.764 316.893 382.393 317.831 380.207C318.764 378.011 320.036 376.071 321.645 374.387C323.249 372.693 325.103 371.319 327.206 370.265C329.045 369.344 330.848 368.77 332.617 368.545C334.38 368.31 336.037 368.407 337.587 368.838C339.132 369.258 340.498 369.991 341.683 371.037C342.878 372.078 343.817 373.406 344.499 375.021L335.935 379.313Z" fill="white"/>
<path d="M286.945 423.381L282.734 388.245L297.2 384.026C299.687 383.301 301.919 383.141 303.896 383.547C305.873 383.953 307.486 384.897 308.735 386.379C309.984 387.862 310.759 389.849 311.06 392.342C311.367 394.856 311.09 397.133 310.229 399.172C309.375 401.196 308.041 402.935 306.228 404.387C304.422 405.825 302.242 406.916 299.69 407.661L291.05 410.181L290.166 402.768L296.973 400.783C298.043 400.471 298.943 400.066 299.673 399.569C300.401 399.061 300.932 398.444 301.265 397.72C301.595 396.985 301.696 396.115 301.569 395.11C301.442 394.105 301.138 393.348 300.657 392.837C300.174 392.315 299.536 392.016 298.744 391.939C297.949 391.851 297.028 391.96 295.981 392.265L292.774 393.201L296.043 420.727L286.945 423.381ZM304.648 401.527L314.96 415.21L305.076 418.093L294.961 404.353L304.648 401.527Z" fill="white"/>
<path d="M278.068 391.091L272.273 426H264.364L254.818 407.659H254.614L251.545 426H242.068L247.864 391.091H255.909L265.318 409.364H265.591L268.591 391.091H278.068Z" fill="white"/>
<path d="M131.6 369.3C124.6 376.1 117.6 382.7 109.7 387.9C107.7 389.2 105.7 390.4 103.5 391.5C101.2 392.7 100.1 393.2 97.8 394C95.6 394.8 93.3 395.4 91.1 395.8C89.8 396 89.8 396 88.4 396.1C87.2 396.2 86 396.2 84.7 396.2C79.8 396.1 75.1 395 70.2 393.1C66.2 391.5 61.7 388.8 58 386C57.3 385.5 58.1 386.1 57.4 385.5C57 385.2 56.6 384.9 56.2 384.5C55.3 383.7 54.4 383 53.6 382.2C52 380.7 50.5 379.1 49.1 377.5C46.3 374.3 44.2 371.3 41.8 367.3C32.9 352.1 29.6 334.5 31.3 316.6C33.2 296.7 41.3 277.2 51.8 259.9C57.4 250.7 63.8 242.2 70 233.4C76.3 224.4 81.8 215 85.7 204.7C89.6 194.4 92 184 94.6 173.6C95.9 168.4 97.2 163.2 98.8 158.1C99.5 155.8 100.2 153.5 101.1 151.2C101.4 150.2 101.8 149.3 102.2 148.3C102.4 147.8 102.6 147.3 102.8 146.8C102.9 146.5 103.1 146.2 103.2 145.8C103 146.3 103.2 145.7 103.3 145.6C105.1 141.5 107.1 137.5 109.5 133.6C111.9 129.8 113.9 127.1 117.1 123.7C118.6 122.1 120.2 120.6 121.9 119.3C122.2 119.1 122.4 118.9 122.7 118.7C122.6 118.8 122.2 119.1 122.7 118.7C123.1 118.4 123.5 118.1 123.9 117.8C124.9 117.1 125.8 116.5 126.8 115.9C130.9 113.4 135.1 111.9 139.8 110.8C150.3 108.4 161.7 108.7 172.7 108.7C184.5 108.7 196.3 108.9 208.2 109.1C220 109.2 232.1 109.3 244 108.7C255 108.2 266.1 107.2 276.8 104.5C295.6 99.9 314.1 89.1 323.1 71.3C325.2 67.2 326.7 62.9 327.5 58.4C328 55.8 326.8 53 324 52.3C321.6 51.6 318.3 53.1 317.9 55.8C317.5 58.1 316.9 60.3 316.2 62.4C316 62.9 315.8 63.4 315.7 63.8C315.7 63.9 315.5 64.3 315.7 63.8C315.6 64.1 315.4 64.4 315.3 64.7C314.8 65.7 314.3 66.7 313.8 67.6C311.5 71.9 309.4 74.6 306 77.9C304.4 79.5 302.8 81 301 82.4C300.8 82.6 300.6 82.7 300.4 82.9C300.9 82.5 300.3 83 300.2 83.1C299.8 83.4 299.4 83.7 298.9 84C297.9 84.7 296.9 85.4 295.9 86C291.8 88.6 287.5 90.6 283.1 92.2C272.8 95.9 262.3 97.5 251.7 98.3C239.9 99.2 228.1 99.3 216.3 99.2C204.5 99.1 192 98.8 179.8 98.8C167.6 98.8 156.4 98.5 144.8 100C134 101.4 124.1 104.9 115.5 111.7C108.2 117.5 102.5 125.3 98.1 133.4C88.2 152 85.3 172.9 79.3 192.8C76.1 203.3 71.9 212.8 65.8 222C59.8 231.3 53.1 239.7 47.1 248.8C35.5 266.6 26 286.5 22.5 307.6C19.2 327.2 21.2 347.2 29.5 365.3C37.6 382.9 52.4 398.1 71.2 403.9C81.3 407 92.1 406.7 102 402.9C111.8 399.1 120.2 393 128 386.2C131.7 383 135.2 379.6 138.7 376.3C140.6 374.4 140.6 371.1 138.7 369.2C136.8 367.3 133.5 367.4 131.6 369.3Z" fill="#231F20"/>
<path d="M176.3 446.8L49.3 313.6C47 311.2 47.1 307.4 49.5 305.1L96.5 260.3C98.9 258 102.7 258.1 105 260.5L232 393.7C234.3 396.1 234.2 399.9 231.8 402.2L184.8 447C182.4 449.3 178.6 449.2 176.3 446.8Z" fill="#231F20"/>
<path d="M189.1 380.7L114.3 302.3C113.9 301.9 113.9 301.3 114.3 300.9L121.7 293.9C122.1 293.5 122.7 293.5 123.1 293.9L197.9 372.3C198.3 372.7 198.3 373.3 197.9 373.7L190.5 380.7C190.1 381.1 189.5 381.1 189.1 380.7Z" fill="#999999"/>
<path d="M188.9 430.3L179.5 420.4C179.1 420 179.1 419.4 179.5 419L185.4 413.4C185.8 413 186.4 413 186.8 413.4L196.2 423.3C196.6 423.7 196.6 424.3 196.2 424.7L190.3 430.3C190 430.7 189.3 430.7 188.9 430.3Z" fill="#999999"/>
<path d="M170 424.1L164.4 418.2C164 417.8 164 417.2 164.4 416.8L168.8 412.6C169.2 412.2 169.8 412.2 170.2 412.6L175.8 418.5C176.2 418.9 176.2 419.5 175.8 419.9L171.4 424.1C171.1 424.5 170.4 424.5 170 424.1Z" fill="#999999"/>
<path d="M177.8 432.2L172.2 426.3C171.8 425.9 171.8 425.3 172.2 424.9L176.6 420.7C177 420.3 177.6 420.3 178 420.7L183.6 426.6C184 427 184 427.6 183.6 428L179.2 432.2C178.8 432.7 178.2 432.6 177.8 432.2Z" fill="#999999"/>
<path d="M182.1 436.7L180 434.5C179.6 434.1 179.6 433.5 180 433.1L184.4 428.9C184.8 428.5 185.4 428.5 185.8 428.9L187.9 431.1C188.3 431.5 188.3 432.1 187.9 432.5L183.5 436.7C183.1 437.2 182.5 437.1 182.1 436.7Z" fill="#999999"/>
<path d="M162.3 416L156.7 410.1C156.3 409.7 156.3 409.1 156.7 408.7L161.1 404.5C161.5 404.1 162.1 404.1 162.5 404.5L168.1 410.4C168.5 410.8 168.5 411.4 168.1 411.8L163.7 416C163.3 416.4 162.7 416.4 162.3 416Z" fill="#999999"/>
<path d="M154.6 407.9L149 402C148.6 401.6 148.6 401 149 400.6L153.4 396.4C153.8 396 154.4 396 154.8 396.4L160.4 402.3C160.8 402.7 160.8 403.3 160.4 403.7L156 407.9C155.6 408.3 155 408.3 154.6 407.9Z" fill="#999999"/>
<path d="M146.9 399.7L141.3 393.8C140.9 393.4 140.9 392.8 141.3 392.4L145.7 388.2C146.1 387.8 146.7 387.8 147.1 388.2L152.7 394.1C153.1 394.5 153.1 395.1 152.7 395.5L148.3 399.7C147.9 400.1 147.2 400.1 146.9 399.7Z" fill="#999999"/>
<path d="M138.9 391.4L133.3 385.5C132.9 385.1 132.9 384.5 133.3 384.1L137.7 379.9C138.1 379.5 138.7 379.5 139.1 379.9L144.7 385.8C145.1 386.2 145.1 386.8 144.7 387.2L140.3 391.4C139.9 391.8 139.3 391.8 138.9 391.4Z" fill="#999999"/>
<path d="M131.1 383.2L125.5 377.3C125.1 376.9 125.1 376.3 125.5 375.9L129.9 371.7C130.3 371.3 130.9 371.3 131.3 371.7L136.9 377.6C137.3 378 137.3 378.6 136.9 379L132.5 383.2C132.1 383.6 131.5 383.6 131.1 383.2Z" fill="#999999"/>
<path d="M123.4 375.1L117.8 369.2C117.4 368.8 117.4 368.2 117.8 367.8L122.2 363.6C122.6 363.2 123.2 363.2 123.6 363.6L129.2 369.5C129.6 369.9 129.6 370.5 129.2 370.9L124.8 375.1C124.4 375.5 123.7 375.5 123.4 375.1Z" fill="#999999"/>
<path d="M115.7 366.9L110.1 361C109.7 360.6 109.7 360 110.1 359.6L114.5 355.4C114.9 355 115.5 355 115.9 355.4L121.5 361.3C121.9 361.7 121.9 362.3 121.5 362.7L117.1 366.9C116.7 367.4 116.1 367.3 115.7 366.9Z" fill="#999999"/>
<path d="M108 358.9L102.4 353C102 352.6 102 352 102.4 351.6L106.8 347.4C107.2 347 107.8 347 108.2 347.4L113.8 353.3C114.2 353.7 114.2 354.3 113.8 354.7L109.4 358.9C109 359.3 108.4 359.3 108 358.9Z" fill="#999999"/>
<path d="M100.4 350.9L94.8 345C94.4 344.6 94.4 344 94.8 343.6L99.2 339.4C99.6 339 100.2 339 100.6 339.4L106.2 345.3C106.6 345.7 106.6 346.3 106.2 346.7L101.8 350.9C101.4 351.3 100.8 351.3 100.4 350.9Z" fill="#999999"/>
<path d="M92.8 342.9L87.2 337C86.8 336.6 86.8 336 87.2 335.6L91.6 331.4C92 331 92.6 331 93 331.4L98.6 337.3C99 337.7 99 338.3 98.6 338.7L94.2 342.9C93.8 343.3 93.1 343.3 92.8 342.9Z" fill="#999999"/>
<path d="M85.2 334.9L79.6 329C79.2 328.6 79.2 328 79.6 327.6L84 323.4C84.4 323 85 323 85.4 323.4L91 329.3C91.4 329.7 91.4 330.3 91 330.7L86.6 334.9C86.2 335.4 85.5 335.3 85.2 334.9Z" fill="#999999"/>
<path d="M77.6 326.9L72 321C71.6 320.6 71.6 320 72 319.6L76.4 315.4C76.8 315 77.4 315 77.8 315.4L83.4 321.3C83.8 321.7 83.8 322.3 83.4 322.7L79 326.9C78.7 327.3 78 327.3 77.6 326.9Z" fill="#999999"/>
<path d="M69.8 318.8L59.8 308.3C59.4 307.9 59.4 307.3 59.8 306.9L64.2 302.7C64.6 302.3 65.2 302.3 65.6 302.7L75.6 313.2C76 313.6 76 314.2 75.6 314.6L71.2 318.8C70.8 319.2 70.1 319.2 69.8 318.8Z" fill="#999999"/>
<path d="M197 422.6L184.7 409.7C184.3 409.3 184.3 408.7 184.7 408.3L190.6 402.7C191 402.3 191.6 402.3 192 402.7L204.3 415.6C204.7 416 204.7 416.6 204.3 417L198.4 422.6C198.1 423 197.4 423 197 422.6Z" fill="#999999"/>
<path d="M182.1 406.9L176.5 401C176.1 400.6 176.1 400 176.5 399.6L182.4 394C182.8 393.6 183.4 393.6 183.8 394L189.4 399.9C189.8 400.3 189.8 400.9 189.4 401.3L183.5 406.9C183.1 407.3 182.5 407.3 182.1 406.9Z" fill="#999999"/>
<path d="M174.3 398.7L168.7 392.8C168.3 392.4 168.3 391.8 168.7 391.4L174.6 385.8C175 385.4 175.6 385.4 176 385.8L181.6 391.7C182 392.1 182 392.7 181.6 393.1L175.7 398.7C175.3 399.1 174.7 399.1 174.3 398.7Z" fill="#999999"/>
<path d="M166.5 390.5L160.9 384.6C160.5 384.2 160.5 383.6 160.9 383.2L166.8 377.6C167.2 377.2 167.8 377.2 168.2 377.6L173.8 383.5C174.2 383.9 174.2 384.5 173.8 384.9L167.9 390.5C167.5 390.9 166.9 390.9 166.5 390.5Z" fill="#999999"/>
<path d="M158.5 382.1L152.9 376.2C152.5 375.8 152.5 375.2 152.9 374.8L158.8 369.2C159.2 368.8 159.8 368.8 160.2 369.2L165.8 375.1C166.2 375.5 166.2 376.1 165.8 376.5L159.9 382.1C159.5 382.5 158.9 382.5 158.5 382.1Z" fill="#999999"/>
<path d="M150.7 373.9L145.1 368C144.7 367.6 144.7 367 145.1 366.6L151 361C151.4 360.6 152 360.6 152.4 361L158 366.9C158.4 367.3 158.4 367.9 158 368.3L152.1 373.9C151.7 374.3 151.1 374.3 150.7 373.9Z" fill="#999999"/>
<path d="M142.9 365.7L137.3 359.8C136.9 359.4 136.9 358.8 137.3 358.4L143.2 352.8C143.6 352.4 144.2 352.4 144.6 352.8L150.2 358.7C150.6 359.1 150.6 359.7 150.2 360.1L144.3 365.7C143.9 366.2 143.3 366.1 142.9 365.7Z" fill="#999999"/>
<path d="M135.2 357.6L129.6 351.7C129.2 351.3 129.2 350.7 129.6 350.3L135.5 344.7C135.9 344.3 136.5 344.3 136.9 344.7L142.5 350.6C142.9 351 142.9 351.6 142.5 352L136.6 357.6C136.2 358 135.5 358 135.2 357.6Z" fill="#999999"/>
<path d="M127.4 349.5L121.8 343.6C121.4 343.2 121.4 342.6 121.8 342.2L127.7 336.6C128.1 336.2 128.7 336.2 129.1 336.6L134.7 342.5C135.1 342.9 135.1 343.5 134.7 343.9L128.8 349.5C128.5 349.9 127.8 349.9 127.4 349.5Z" fill="#999999"/>
<path d="M119.6 341.3L114 335.4C113.6 335 113.6 334.4 114 334L119.9 328.4C120.3 328 120.9 328 121.3 328.4L126.9 334.3C127.3 334.7 127.3 335.3 126.9 335.7L121 341.3C120.6 341.7 120 341.7 119.6 341.3Z" fill="#999999"/>
<path d="M111.6 332.9L106 327C105.6 326.6 105.6 326 106 325.6L111.9 320C112.3 319.6 112.9 319.6 113.3 320L118.9 325.9C119.3 326.3 119.3 326.9 118.9 327.3L113 332.9C112.6 333.3 112 333.3 111.6 332.9Z" fill="#999999"/>
<path d="M103.8 324.6L98.2 318.7C97.8 318.3 97.8 317.7 98.2 317.3L104.1 311.7C104.5 311.3 105.1 311.3 105.5 311.7L111.1 317.6C111.5 318 111.5 318.6 111.1 319L105.2 324.6C104.8 325 104.1 325 103.8 324.6Z" fill="#999999"/>
<path d="M95.8 316.3L90.2 310.4C89.8 310 89.8 309.4 90.2 309L96.1 303.4C96.5 303 97.1 303 97.5 303.4L103.1 309.3C103.5 309.7 103.5 310.3 103.1 310.7L97.2 316.3C96.8 316.7 96.2 316.7 95.8 316.3Z" fill="#999999"/>
<path d="M75.7 311.6L66.5 301.9C66.1 301.5 66.1 300.9 66.5 300.5L72.4 294.9C72.8 294.5 73.4 294.5 73.8 294.9L83 304.6C83.4 305 83.4 305.6 83 306L77.1 311.6C76.7 312 76.1 312 75.7 311.6Z" fill="#999999"/>
<path d="M87.8 307.9L74.5 294C74.1 293.6 74.1 293 74.5 292.6L80.4 287C80.8 286.6 81.4 286.6 81.8 287L95.1 300.9C95.5 301.3 95.5 301.9 95.1 302.3L89.2 307.9C88.8 308.3 88.2 308.3 87.8 307.9Z" fill="#999999"/>
<path d="M205.2 414.8L191.1 400C190.7 399.6 190.7 399 191.1 398.6L197 393C197.4 392.6 198 392.6 198.4 393L212.5 407.8C212.9 408.2 212.9 408.8 212.5 409.2L206.6 414.8C206.2 415.2 205.6 415.2 205.2 414.8Z" fill="#999999"/>
<path d="M197.8 388.3L192.2 382.4C191.8 382 191.8 381.4 192.2 381L198.1 375.4C198.5 375 199.1 375 199.5 375.4L205.1 381.3C205.5 381.7 205.5 382.3 205.1 382.7L199.2 388.3C198.8 388.7 198.2 388.7 197.8 388.3Z" fill="#999999"/>
<path d="M205.9 396.8L200.3 390.9C199.9 390.5 199.9 389.9 200.3 389.5L206.2 383.9C206.6 383.5 207.2 383.5 207.6 383.9L213.2 389.8C213.6 390.2 213.6 390.8 213.2 391.2L207.3 396.8C207 397.3 206.3 397.2 205.9 396.8Z" fill="#999999"/>
<path d="M214.1 405.4L208.5 399.5C208.1 399.1 208.1 398.5 208.5 398.1L214.4 392.5C214.8 392.1 215.4 392.1 215.8 392.5L221.4 398.4C221.8 398.8 221.8 399.4 221.4 399.8L215.5 405.4C215.1 405.8 214.5 405.8 214.1 405.4Z" fill="#999999"/>
<path d="M188.6 397.4L183 391.5C182.6 391.1 182.6 390.5 183 390.1L188.9 384.5C189.3 384.1 189.9 384.1 190.3 384.5L195.9 390.4C196.3 390.8 196.3 391.4 195.9 391.8L190 397.4C189.6 397.8 188.9 397.8 188.6 397.4Z" fill="#999999"/>
<path d="M180.6 389.1L175 383.2C174.6 382.8 174.6 382.2 175 381.8L180.9 376.2C181.3 375.8 181.9 375.8 182.3 376.2L187.9 382.1C188.3 382.5 188.3 383.1 187.9 383.5L182 389.1C181.7 389.5 181 389.5 180.6 389.1Z" fill="#999999"/>
<path d="M172.8 380.8L167.2 374.9C166.8 374.5 166.8 373.9 167.2 373.5L173.1 367.9C173.5 367.5 174.1 367.5 174.5 367.9L180.1 373.8C180.5 374.2 180.5 374.8 180.1 375.2L174.2 380.8C173.8 381.2 173.2 381.2 172.8 380.8Z" fill="#999999"/>
<path d="M164.8 372.4L159.2 366.5C158.8 366.1 158.8 365.5 159.2 365.1L165.1 359.5C165.5 359.1 166.1 359.1 166.5 359.5L172.1 365.4C172.5 365.8 172.5 366.4 172.1 366.8L166.2 372.4C165.8 372.8 165.2 372.8 164.8 372.4Z" fill="#999999"/>
<path d="M156.8 364L151.2 358.1C150.8 357.7 150.8 357.1 151.2 356.7L157.1 351.1C157.5 350.7 158.1 350.7 158.5 351.1L164.1 357C164.5 357.4 164.5 358 164.1 358.4L158.2 364C157.8 364.4 157.1 364.4 156.8 364Z" fill="#999999"/>
<path d="M148.8 355.6L143.2 349.7C142.8 349.3 142.8 348.7 143.2 348.3L149.1 342.7C149.5 342.3 150.1 342.3 150.5 342.7L156.1 348.6C156.5 349 156.5 349.6 156.1 350L150.2 355.6C149.8 356 149.2 356 148.8 355.6Z" fill="#999999"/>
<path d="M140.6 347.1L135 341.2C134.6 340.8 134.6 340.2 135 339.8L140.9 334.2C141.3 333.8 141.9 333.8 142.3 334.2L147.9 340.1C148.3 340.5 148.3 341.1 147.9 341.5L142 347.1C141.7 347.5 141 347.5 140.6 347.1Z" fill="#999999"/>
<path d="M132.6 338.6L127 332.7C126.6 332.3 126.6 331.7 127 331.3L132.9 325.7C133.3 325.3 133.9 325.3 134.3 325.7L139.9 331.6C140.3 332 140.3 332.6 139.9 333L134 338.6C133.6 339 133 339 132.6 338.6Z" fill="#999999"/>
<path d="M112.8 299.2L107.2 293.3C106.8 292.9 106.8 292.3 107.2 291.9L113.1 286.3C113.5 285.9 114.1 285.9 114.5 286.3L120.1 292.2C120.5 292.6 120.5 293.2 120.1 293.6L114.2 299.2C113.8 299.6 113.2 299.6 112.8 299.2Z" fill="#999999"/>
<path d="M97.7 283.4L92.1 277.5C91.7 277.1 91.7 276.5 92.1 276.1L98 270.5C98.4 270.1 99 270.1 99.4 270.5L105 276.4C105.4 276.8 105.4 277.4 105 277.8L99.1 283.4C98.8 283.8 98.1 283.8 97.7 283.4Z" fill="#999999"/>
<path d="M109.4 287.5L103.8 281.6C103.4 281.2 103.4 280.6 103.8 280.2L105.6 278.5C106 278.1 106.6 278.1 107 278.5L112.6 284.4C113 284.8 113 285.4 112.6 285.8L110.8 287.5C110.4 287.9 109.8 287.9 109.4 287.5Z" fill="#999999"/>
<path d="M105.3 291.4L99.7 285.5C99.3 285.1 99.3 284.5 99.7 284.1L101.5 282.4C101.9 282 102.5 282 102.9 282.4L108.5 288.3C108.9 288.7 108.9 289.3 108.5 289.7L106.7 291.4C106.3 291.8 105.7 291.8 105.3 291.4Z" fill="#999999"/>
<path d="M124.5 330.1L118.9 324.2C118.5 323.8 118.5 323.2 118.9 322.8L124.8 317.2C125.2 316.8 125.8 316.8 126.2 317.2L131.8 323.1C132.2 323.5 132.2 324.1 131.8 324.5L125.9 330.1C125.5 330.5 124.9 330.5 124.5 330.1Z" fill="#999999"/>
<path d="M116.3 321.5L110.7 315.6C110.3 315.2 110.3 314.6 110.7 314.2L116.6 308.6C117 308.2 117.6 308.2 118 308.6L123.6 314.5C124 314.9 124 315.5 123.6 315.9L117.7 321.5C117.4 322 116.7 321.9 116.3 321.5Z" fill="#999999"/>
<path d="M177 417.8L171.4 411.9C171 411.5 171 410.9 171.4 410.5L177.3 404.9C177.7 404.5 178.3 404.5 178.7 404.9L184.3 410.8C184.7 411.2 184.7 411.8 184.3 412.2L178.4 417.8C178 418.2 177.4 418.2 177 417.8Z" fill="#999999"/>
<path d="M169.3 409.8L163.7 403.9C163.3 403.5 163.3 402.9 163.7 402.5L169.6 396.9C170 396.5 170.6 396.5 171 396.9L176.6 402.8C177 403.2 177 403.8 176.6 404.2L170.7 409.8C170.3 410.2 169.7 410.2 169.3 409.8Z" fill="#999999"/>
<path d="M161.5 401.5L155.9 395.6C155.5 395.2 155.5 394.6 155.9 394.2L161.8 388.6C162.2 388.2 162.8 388.2 163.2 388.6L168.8 394.5C169.2 394.9 169.2 395.5 168.8 395.9L162.9 401.5C162.5 402 161.8 401.9 161.5 401.5Z" fill="#999999"/>
<path d="M153.6 393.3L148 387.4C147.6 387 147.6 386.4 148 386L153.9 380.4C154.3 380 154.9 380 155.3 380.4L160.9 386.3C161.3 386.7 161.3 387.3 160.9 387.7L155 393.3C154.6 393.7 154 393.7 153.6 393.3Z" fill="#999999"/>
<path d="M145.7 385L140.1 379.1C139.7 378.7 139.7 378.1 140.1 377.7L146 372.1C146.4 371.7 147 371.7 147.4 372.1L153 378C153.4 378.4 153.4 379 153 379.4L147.1 385C146.7 385.4 146.1 385.4 145.7 385Z" fill="#999999"/>
<path d="M137.9 376.8L132.3 370.9C131.9 370.5 131.9 369.9 132.3 369.5L138.2 363.9C138.6 363.5 139.2 363.5 139.6 363.9L145.2 369.8C145.6 370.2 145.6 370.8 145.2 371.2L139.3 376.8C138.9 377.2 138.3 377.2 137.9 376.8Z" fill="#999999"/>
<path d="M130.2 368.7L124.6 362.8C124.2 362.4 124.2 361.8 124.6 361.4L130.5 355.8C130.9 355.4 131.5 355.4 131.9 355.8L137.5 361.7C137.9 362.1 137.9 362.7 137.5 363.1L131.6 368.7C131.2 369.1 130.5 369.1 130.2 368.7Z" fill="#999999"/>
<path d="M122.5 360.6L116.9 354.7C116.5 354.3 116.5 353.7 116.9 353.3L122.8 347.7C123.2 347.3 123.8 347.3 124.2 347.7L129.8 353.6C130.2 354 130.2 354.6 129.8 355L123.9 360.6C123.5 361.1 122.9 361 122.5 360.6Z" fill="#999999"/>
<path d="M114.7 352.5L109.1 346.6C108.7 346.2 108.7 345.6 109.1 345.2L115 339.6C115.4 339.2 116 339.2 116.4 339.6L122 345.5C122.4 345.9 122.4 346.5 122 346.9L116.1 352.5C115.7 352.9 115.1 352.9 114.7 352.5Z" fill="#999999"/>
<path d="M106.9 344.3L101.3 338.4C100.9 338 100.9 337.4 101.3 337L107.2 331.4C107.6 331 108.2 331 108.6 331.4L114.2 337.3C114.6 337.7 114.6 338.3 114.2 338.7L108.3 344.3C108 344.7 107.3 344.7 106.9 344.3Z" fill="#999999"/>
<path d="M99.2 336.2L93.6 330.3C93.2 329.9 93.2 329.3 93.6 328.9L99.5 323.3C99.9 322.9 100.5 322.9 100.9 323.3L106.5 329.2C106.9 329.6 106.9 330.2 106.5 330.6L100.6 336.2C100.2 336.6 99.6 336.6 99.2 336.2Z" fill="#999999"/>
<path d="M91.5 328.1L85.9 322.2C85.5 321.8 85.5 321.2 85.9 320.8L91.8 315.2C92.2 314.8 92.8 314.8 93.2 315.2L98.8 321.1C99.2 321.5 99.2 322.1 98.8 322.5L92.9 328.1C92.5 328.5 91.9 328.5 91.5 328.1Z" fill="#999999"/>
<path d="M83.6 319.8L78 313.9C77.6 313.5 77.6 312.9 78 312.5L83.9 306.9C84.3 306.5 84.9 306.5 85.3 306.9L90.9 312.8C91.3 313.2 91.3 313.8 90.9 314.2L85 319.8C84.6 320.2 84 320.2 83.6 319.8Z" fill="#999999"/>
<path d="M108 312.7L82.7 286.2C82.3 285.8 82.3 285.2 82.7 284.8L88.6 279.2C89 278.8 89.6 278.8 90 279.2L115.3 305.7C115.7 306.1 115.7 306.7 115.3 307.1L109.4 312.7C109 313.2 108.4 313.1 108 312.7Z" fill="#999999"/>
<mask id="mask0_15_3" style="mask-type:luminance" maskUnits="userSpaceOnUse" x="0" y="0" width="500" height="500">
<path d="M500 0H0V500H500V0Z" fill="white"/>
</mask>
<g mask="url(#mask0_15_3)">
<path d="M360.8 273.4C371.7 265.6 382.6 257.5 391.9 247.8C401.2 238.1 409.4 225.8 413.6 212.2C421.8 185.8 416.2 156.3 400.2 133.9C395.7 127.6 390.6 122 384.8 116.8C381.9 114.2 378.9 111.5 376.4 108.5C376 108.1 375.5 107.1 376.8 109C376.5 108.6 376.2 108.2 375.9 107.8C375.5 107.2 375 106.5 374.6 105.8C373.8 104.4 373 103 372.4 101.5L373.2 103.3C371.8 100 370.9 96.5 370.4 93L370.7 95C370.2 91.2 370.2 87.3 370.7 83.5L370.4 85.5C371 81.4 372 77.4 373.6 73.5L372.8 75.3C373.6 73.4 374.5 71.5 375.6 69.8C376.1 69 376.6 68.2 377.2 67.4C377.5 66.9 377.8 66.5 378.1 66.1C378.6 65.4 377 67.5 377.6 66.8C377.8 66.6 378 66.3 378.2 66.1C379.5 64.5 380.4 62.9 380.4 60.8C380.4 59 379.6 56.8 378.2 55.5C375.5 53 370.2 52.2 367.6 55.5C362.6 61.7 358.8 68.7 356.9 76.5C355 84.3 354.8 92.3 356.4 100.1C358 107.9 361.8 115.2 367.2 121C370.1 124.2 373.4 126.9 376.5 129.8C379.3 132.4 381.9 135.2 384.4 138.1C384.7 138.5 385.1 138.9 385.4 139.4C385.6 139.6 385.7 139.8 385.9 140C386.5 140.8 385.6 139.6 385.5 139.4C386.2 140.2 386.8 141.1 387.4 142C388.7 143.8 389.9 145.6 391 147.4C393.3 151.1 395.2 155 396.9 158.9L396.1 157.1C398.9 163.8 400.9 170.8 401.9 178L401.6 176C402.5 183.1 402.6 190.3 401.6 197.4L401.9 195.4C401 202.2 399.2 208.8 396.6 215.2L397.4 213.4C395.6 217.6 393.5 221.6 391 225.3C390.4 226.2 389.8 227.1 389.1 228C388.8 228.4 388.5 228.8 388.3 229.2C388.1 229.4 388 229.6 387.8 229.9C387.1 230.9 387.8 230 388.1 229.5C386.8 231.3 385.3 232.9 383.8 234.6C377.8 241.2 371.1 247 364.1 252.5C363.9 252.7 363.3 253.1 364.2 252.4C365.2 251.6 364.2 252.4 364 252.6C363.4 253 362.9 253.5 362.3 253.9C361.3 254.6 360.4 255.3 359.4 256C357.3 257.5 355.2 259 353.2 260.6C351.6 261.8 350.3 263.1 349.8 265.1C349.3 266.9 349.5 269.3 350.6 270.9C352.6 273.8 357.4 275.8 360.8 273.4Z" fill="#3E3E3F"/>
</g>
<mask id="mask1_15_3" style="mask-type:luminance" maskUnits="userSpaceOnUse" x="0" y="0" width="500" height="500">
<path d="M500 0H0V500H500V0Z" fill="white"/>
</mask>
<g mask="url(#mask1_15_3)">
<path d="M373.9 215C376.9 224 378.5 233.4 378.5 243.2C378.5 300 324.4 346 257.7 346C228.9 345.9 223.7 356.7 216.6 362.4C194.6 379.9 169.3 384.8 160.1 373.2C151.2 362.1 160.5 339.8 180.9 322.4C179.4 321.4 177.9 320.3 176.5 319.1C172.7 322.9 168.3 326.5 163.4 329.9C140.1 345.7 114.6 348.6 106.2 336.4C97.9 324.2 110 301.4 133.2 285.6C137 283.1 140.7 280.8 144.5 279C144.4 278.7 144.2 278.3 144.1 278C139.5 267.1 137 255.4 137 243.1C137 233.8 138.4 224.8 141.2 216.2C131 208 124.5 195.3 124.5 181.2C124.5 156.3 144.6 136.2 169.5 136.2C182.9 136.2 194.9 142 203.1 151.3C219.5 144.2 238.1 140.2 257.8 140.2C277.5 140.2 295 144 311 150.7C319.2 141.8 331 136.2 344.1 136.2C369 136.2 389.1 156.3 389.1 181.2C389 194.7 383.2 206.7 373.9 215Z" fill="#231F20"/>
</g>
<mask id="mask2_15_3" style="mask-type:luminance" maskUnits="userSpaceOnUse" x="0" y="0" width="500" height="500">
<path d="M500 0H0V500H500V0Z" fill="white"/>
</mask>
<g mask="url(#mask2_15_3)">
<path d="M315.1 270.6C308.4 300.7 267.7 317.2 224.3 307.5C180.9 297.8 151.2 265.5 157.9 235.4C164.6 205.3 197.6 171.6 248.7 198.5C306.5 193.2 321.8 240.5 315.1 270.6Z" fill="#DC9D5D"/>
</g>
<mask id="mask3_15_3" style="mask-type:luminance" maskUnits="userSpaceOnUse" x="0" y="0" width="500" height="500">
<path d="M500 0H0V500H500V0Z" fill="white"/>
</mask>
<g mask="url(#mask3_15_3)">
<path d="M185.4 242.1C189.3 242.1 193.1 238.7 192.9 234.6C192.7 230.6 189.6 227.1 185.4 227.1C181.5 227.1 177.7 230.6 177.9 234.6C178 238.6 181.2 242.1 185.4 242.1Z" fill="#231F20"/>
</g>
<mask id="mask4_15_3" style="mask-type:luminance" maskUnits="userSpaceOnUse" x="0" y="0" width="500" height="500">
<path d="M500 0H0V500H500V0Z" fill="white"/>
</mask>
<g mask="url(#mask4_15_3)">
<path d="M251.6 262.1C255.5 262.1 259.3 258.6 259.1 254.6C258.9 250.6 255.8 247.1 251.6 247.1C247.7 247.1 243.9 250.6 244.1 254.6C244.3 258.6 247.4 262.1 251.6 262.1Z" fill="#231F20"/>
</g>
<mask id="mask5_15_3" style="mask-type:luminance" maskUnits="userSpaceOnUse" x="145" y="-439" width="577" height="577">
<path d="M145.245 54.6982L638.295 137.648L721.245 -355.402L228.195 -438.352L145.245 54.6982Z" fill="white"/>
</mask>
<g mask="url(#mask5_15_3)">
<path d="M311.198 55.5437L333.484 59.2931L338.61 28.8226L316.324 25.0732L311.198 55.5437Z" fill="#231F20"/>
</g>
<mask id="mask6_15_3" style="mask-type:luminance" maskUnits="userSpaceOnUse" x="154" y="-473" width="577" height="577">
<path d="M154.242 20.0785L647.292 103.029L730.242 -390.022L237.192 -472.972L154.242 20.0785Z" fill="white"/>
</mask>
<g mask="url(#mask6_15_3)">
<path d="M320.894 25.8076L334.107 28.0306L334.937 23.1001L321.723 20.8771L320.894 25.8076Z" fill="#3E3E3F"/>
</g>
<mask id="mask7_15_3" style="mask-type:luminance" maskUnits="userSpaceOnUse" x="0" y="0" width="500" height="500">
<path d="M500 0H0V500H500V0Z" fill="white"/>
</mask>
<g mask="url(#mask7_15_3)">
<path d="M146.2 198.1C137.9 197.9 134.6 172.6 147.5 159C160.4 145.2 186.2 147.5 186.4 155.9C186.4 162.5 152.5 198.3 146.2 198.1Z" fill="#DC9D5D"/>
</g>
<mask id="mask8_15_3" style="mask-type:luminance" maskUnits="userSpaceOnUse" x="0" y="0" width="500" height="500">
<path d="M500 0H0V500H500V0Z" fill="white"/>
</mask>
<g mask="url(#mask8_15_3)">
<path d="M324.9 158.1C324.9 149.8 350 145.7 364.1 158.1C378.3 170.6 376.8 196.4 368.4 196.8C361.7 197.2 324.9 164.4 324.9 158.1Z" fill="#DC9D5D"/>
</g>
<mask id="mask9_15_3" style="mask-type:luminance" maskUnits="userSpaceOnUse" x="0" y="0" width="500" height="500">
<path d="M500 0H0V500H500V0Z" fill="white"/>
</mask>
<g mask="url(#mask9_15_3)">
<path d="M242.5 148.3C243.7 145 243.2 141.6 242.3 138.3C241.3 134.7 240 131.2 238.9 127.7L236.3 128.9C241.3 131.4 246.1 134.3 250.7 137.5C251.4 138 253.1 137.5 253.3 136.6C254.1 132.6 255.1 128.6 256.4 124.7L253.6 125.5C255.6 127.3 257.2 129.4 258.8 131.6C259.6 132.7 260.3 133.7 261.1 134.7C261.9 135.7 262.6 136.5 264 136.4C266.3 136.2 268.6 133.9 270.4 132.5C271.5 131.6 272.5 130.7 273.6 129.9C274.1 129.5 274.6 129.2 275.1 128.8C275.4 128.6 275.7 128.4 276 128.3C276.2 128.2 277 127.9 276.6 128L275.6 127.8C276.1 128.1 275.7 129.8 275.7 130.3C275.6 131.1 275.4 132 275.3 132.8C274.9 134.4 274.4 135.9 273.9 137.5C272.8 140.8 271.8 144.2 270.7 147.5C270.3 148.7 273.3 148.3 273.6 147.2C275.1 142.5 276.9 137.8 278 132.9C278.3 131.7 278.5 130.5 278.6 129.2C278.7 128.4 278.8 127.4 278.4 126.7C277.3 124.9 274.7 126.7 273.5 127.4C271.7 128.5 270.2 129.9 268.6 131.2C267.8 131.8 267.1 132.4 266.3 133C265.9 133.3 265.4 133.6 265 133.9C264.8 134 264.6 134.2 264.3 134.3C264.7 134.3 264.8 134.2 264.4 133.9C264.3 133.5 263.6 133 263.4 132.6C263.1 132.2 262.7 131.7 262.4 131.3C261.8 130.5 261.3 129.7 260.7 129C259.4 127.2 258 125.5 256.3 124.1C255.5 123.4 253.8 123.8 253.5 124.9C252.2 128.8 251.2 132.8 250.4 136.8L253 135.9C248.4 132.7 243.6 129.8 238.6 127.3C238 127 235.6 127.3 236 128.5C237.1 131.9 238.3 135.3 239.3 138.7C240.3 142.1 240.8 145.4 239.6 148.6C239.4 149.3 240.5 149.4 240.9 149.4C241.6 149.4 242.3 149 242.5 148.3Z" fill="#231F20"/>
</g>
<mask id="mask10_15_3" style="mask-type:luminance" maskUnits="userSpaceOnUse" x="0" y="0" width="500" height="500">
<path d="M500 0H0V500H500V0Z" fill="white"/>
</mask>
<g mask="url(#mask10_15_3)">
<path d="M245.7 143.6C247.6 143.6 250.3 142.2 250.5 140.1C250.8 137.8 248.2 137.3 246.5 137.3C244.6 137.3 241.9 138.7 241.7 140.8C241.4 143 244 143.6 245.7 143.6Z" fill="#231F20"/>
</g>
<mask id="mask11_15_3" style="mask-type:luminance" maskUnits="userSpaceOnUse" x="0" y="0" width="500" height="500">
<path d="M500 0H0V500H500V0Z" fill="white"/>
</mask>
<g mask="url(#mask11_15_3)">
<path d="M259.1 138.4V132.7C259.1 131 259.2 129.2 258.7 127.5C258.2 126 252.9 127.5 252.9 129C252.9 133.8 251.8 138.4 250.6 143L256.4 141.7C255.9 140.4 255.4 139.1 255 137.8C254.7 137.1 253.1 137.3 252.6 137.4C251.6 137.6 250.2 137.9 249.4 138.8L247.8 140.7L253.3 139.8C253 138.9 252.9 137.9 252.9 136.9C252.9 136 250.5 136.5 250.1 136.6C249 136.8 247.8 137.2 247.1 138.2C246.5 139 246.9 139.9 247.8 140.3C249 140.8 250.7 140.4 251.8 140C252.6 139.7 254.5 139 254.2 137.8C254 137 252.8 136.6 252 136.4C250.7 136.1 249.3 136.3 248 136.6C247.4 136.8 246.8 137 246.2 137.2C245.4 137.5 245.7 137.4 247.2 137.1C247 137 246.9 136.9 246.8 136.7C246.1 135.9 245.6 134.7 245.1 133.7C244.5 132.5 243.8 131.4 243.2 130.2L237.4 131.8C239.6 134.8 242.7 136.7 245.8 138.6C249.2 140.6 252.7 142.5 256.5 143.8C257.4 144.1 258.7 143.8 259.5 143.5C260.2 143.3 261.4 142.9 261.7 142.1C263 138.6 262.9 134.8 261.3 131.4L255.5 132.9C257.2 135.8 259 138.6 260.7 141.5C261.6 143 265.9 141.5 266.5 140.2C266.8 139.7 266.8 139.2 266.8 138.6C266.9 137.7 266.9 137.7 267.5 137.3C268.8 136.5 269.9 135.6 271 134.6C271.8 133.8 270.5 133.5 269.9 133.5C268.6 133.5 267.1 133.9 266.1 134.6C264.9 135.4 263.7 136.3 262.6 137.1C262 137.5 261.6 138.1 262.5 138.5C263.5 138.9 265 138.4 265.9 138.1C270.5 136.4 276.2 134 277.5 128.8C277.9 127.2 273.5 128.5 272.9 128.8C271.4 129.6 270.4 130.6 269.4 131.8C268.4 133 267.3 134.1 266.3 135.2C264.2 137.4 262.5 139.9 262.4 143C262.4 143.7 264.5 143.5 264.8 143.4C265.8 143.2 267.2 142.9 267.9 142C269.6 140.1 271 137.9 272.4 135.8L266.6 137.1C266.8 139 266.8 140.9 266.7 142.8C266.6 143.6 269.2 143.2 269.5 143.1C270.4 142.9 272 142.5 272.5 141.5C273.4 139.6 273.2 137.4 274.2 135.6L268.5 136.5L268.1 139.7C267.9 141.6 273.2 139.9 273.8 138.8C274.8 136.9 275.8 135.1 276.9 133.2C277.4 132.2 274.9 132.4 274.5 132.5C273.4 132.7 271.7 133.1 271.1 134.2C270.1 136.1 269.1 137.9 268 139.8L273.7 138.8L274.1 135.6C274.3 133.8 269 135.4 268.4 136.6C267.4 138.4 267.6 140.6 266.7 142.5L272.5 141.2C272.6 139.3 272.6 137.4 272.4 135.5C272.3 134.6 270 135.1 269.6 135.2C268.5 135.4 267.2 135.8 266.6 136.8C265.3 138.7 264.1 140.6 262.6 142.3L268.1 141.4C268.2 138.8 269.8 136.7 271.5 134.8C272.4 133.9 273.3 133 274.1 132C274.8 131.2 275.4 130.1 276.3 129.6H271.7C270.7 133.5 267.2 135.1 263.7 136.4L267 137.4C268.2 136.6 269.4 135.7 270.5 134.9H265.6C264.5 136 263.2 136.6 262 137.6C260.7 138.6 261.2 139.9 260.6 141.2L266.4 139.9C264.7 137 262.9 134.2 261.2 131.3C260.3 129.9 254.8 131.6 255.4 132.8C256.9 136 257.1 139.5 255.9 142.9L261.1 141.2C257.6 139.9 254.3 138.2 251.1 136.3C248.2 134.6 245 132.8 243 130C242 128.7 236.6 130.4 237.2 131.5C238 133 238.8 134.4 239.6 135.9C240.2 136.9 240.7 138.4 241.8 139C243.1 139.8 244.9 139.5 246.3 139.2C246.3 139.2 248.5 138.6 248.5 138.5L247.4 138.7L247.8 138.8C248.1 139.1 248.3 139 248.3 139.5L248.6 138.9L248.4 139.1L250 138.2L249.7 138.3L252 137.8C253 137.8 252.5 137.7 252.9 137.1L247.1 138.4C247.1 139.4 247.3 140.3 247.5 141.3C247.7 142.1 249.4 141.8 249.9 141.7C250.9 141.5 252.3 141.2 253 140.3L254.6 138.4L249.1 139.3C249.6 140.6 250.1 141.9 250.5 143.2C251 144.7 255.9 143.2 256.3 141.9C257.5 137.1 258.7 132.3 258.7 127.3L252.9 128.8C253.4 130.5 253.3 132.3 253.3 134V139.7C253.4 141.1 259.2 140.2 259.1 138.4Z" fill="#231F20"/>
</g>
<mask id="mask12_15_3" style="mask-type:luminance" maskUnits="userSpaceOnUse" x="0" y="0" width="500" height="500">
<path d="M500 0H0V500H500V0Z" fill="white"/>
<path d="M500 0H0V500H500V0Z" fill="white"/>
</mask>
<g mask="url(#mask12_15_3)">
<path d="M200.8 251.8C202.4 253.4 204.4 254.5 206.6 254.9C207.8 255.1 209 255.2 210.2 254.9C210.8 254.8 211.4 254.5 211.9 254.3C212.3 254.1 212.8 253.7 213.3 253.5L211.9 253.3L212.1 253.4L211.4 252.7C211.3 252.5 211.6 253.3 211.6 253.3C211.7 253.7 211.8 254 212 254.3C212.3 254.9 212.5 255.5 212.9 256C213.6 257.1 214.5 258 215.6 258.8C217.7 260.4 220.7 260.8 223.2 259.9C224.1 259.5 224.8 258.6 224.5 257.6C224.2 256.7 223.1 255.9 222.2 256.3C220.5 257 218.7 256.6 217.3 255.4C216.6 254.8 216.1 254.1 215.7 253.3C215.2 252.4 215.2 251.1 214.4 250.3C213.4 249.3 212.2 249.8 211.2 250.3C210.3 250.8 209.6 251.2 208.6 251.1C206.7 251 204.9 250.1 203.6 248.8C201.7 247.4 199.1 250.1 200.8 251.8Z" fill="#231F20"/>
</g>
</g>
<defs>
<clipPath id="clip0_15_3">
<rect width="500" height="500" fill="white"/>
</clipPath>
</defs>
</svg>
