<?xml version="1.0" encoding="utf-8"?>
<!-- Generator: Adobe Illustrator 19.0.0, SVG Export Plug-In . SVG Version: 6.00 Build 0)  -->
<svg version="1.1" xmlns="http://www.w3.org/2000/svg" xmlns:xlink="http://www.w3.org/1999/xlink" x="0px" y="0px"
	 viewBox="0 0 260 260" style="enable-background:new 0 0 260 260;" xml:space="preserve">
<style type="text/css">
	.st0{display:none;}
	.st1{display:inline;fill:#ED1F24;}
	.st2{fill:#FFFFFF;}
	.st3{display:inline;fill:#2C2B7E;}
	.st4{display:inline;fill:#25245B;}
	.st5{display:none;fill:#2C2B7E;}
	.st6{display:none;fill:#25245B;}
	.st7{display:inline;fill:#FFFFFF;}
	.st8{display:inline;fill:#FFFFFF;stroke:#FFFFFF;stroke-miterlimit:10;}
	.st9{fill:#2C2B7E;}
	.st10{fill:#16183C;}
	.st11{fill:#fff;}
	.st12{fill:none;stroke:#000000;stroke-miterlimit:10;}
</style>
<g id="Layer_4" class="st0">
	<rect x="-616.7" class="st1" width="596.7" height="264"/>
</g>
<g id="Layer_2" class="st0">
</g>
<g id="Layer_3_copy">

	
	<g>
		<g>
			<g>
				<path class="st9" d="M148.6,214.2l-65.3-1.6c-8.9-0.2-16.6-7.8-16.6-16.9v-85.1c0-9.1,5-15.8,16.6-10.5l65.3,23.7
					c5.5,2,9.8,9,9.8,15.7v62.8C158.4,209,158.1,211.8,148.6,214.2z"/>
				<path class="st10" d="M77.9,98.3v93.4c0,0-1,11.2,8.6,11.8c10.9,0.6,71.6,3.7,71.6,3.7s-0.6,2.7-2,4.3c-1.5,1.6-1.9,1.7-2.7,2.1
					c-0.8,0.4-1.7,0.5-2.6,0.6c-0.8,0.1-70.5-1.7-70.5-1.7s-4.7,0-8.3-3.1c-3.7-3.1-4.5-6.2-4.5-6.2s-0.8-1.9-0.8-4.5
					c0-2.6,0-91.8,0-91.8s0.1-2.4,0.8-3.7c0.7-1.3,1.3-2.4,3-3.6C72.1,98.4,75.6,97.7,77.9,98.3z"/>
			</g>
			<g>
				<path class="st9" d="M206.8,216.1l-37.5-0.6c-4.8-0.1-8.9-5.5-8.9-12.2l0-62.8c0-8.4,4-10.2,8.9-8.4l37.5,13.6
					c3.4,1.2,6,6.4,6,11.7v49.2C212.8,211.9,210.3,215.9,206.8,216.1z"/>
				<path class="st10" d="M166.3,131.5v68.6c0,0-0.5,8.3,4.7,8.5c6,0.3,41.3,1.9,41.3,1.9s0,2.2-0.9,3.4c-0.9,1.3-1.2,1.3-1.6,1.7
					c-0.5,0.4-1.1,0.4-1.6,0.5c-0.5,0.1-40.5-0.7-40.5-0.7s-2.5,0-4.5-2.2c-2-2.2-2.4-4.4-2.4-4.4s-0.4-1.4-0.4-3.3
					c0-1.9,0-66.9,0-66.9s0.1-1.8,0.4-2.7c0.3-1,0.7-1.8,1.6-2.9C163.3,132,165.1,131.2,166.3,131.5z"/>
			</g>
			<g>
				<path class="st9" d="M244.1,216.8l-24.5-0.4c-3,0-5.6-4.3-5.6-9.6v-48.9c2.6-8.8,2.5-8.6,5.6-7.5l24.5,8.7
					c2.3,0.8,4.1,5,4.1,9.3V209C248.1,213.3,248.1,214.1,244.1,216.8z"/>
				<path class="st10" d="M217.8,149.8v54.4c0,0-0.3,6.6,3,6.7c3.8,0.2,27.3,1.2,27.3,1.2s-0.2,1.8-0.9,2.8
					c-0.6,1.1-0.8,1.1-1.1,1.4c-0.3,0.3-0.7,0.4-1.1,0.4c-0.3,0.1-26.4-0.4-26.4-0.4s-1.6,0-2.8-1.7c-1.2-1.7-1.5-3.5-1.5-3.5
					s-0.3-1.1-0.3-2.6s0-52.8,0-52.8l0.3-2.2c0,0,0.4-1.5,1-2.4C215.8,150.4,217,149.7,217.8,149.8z"/>
			</g>
			<path class="st11" d="M97.5,124.1l14.8,4.5l21.8,37.9v-31.3l12.5,3.8v53.8l-11.6-1.2l-21.6-35.7v33.5l-15.9-1.6V124.1z"/>
			<path class="st11" d="M192.9,152.1c2,0.6,3.7,1.5,5.2,2.6c1.5,1.1,2.7,2.5,3.7,4.1c1,1.6,1.7,3.4,2.2,5.4c0.5,2,0.8,4.2,0.8,6.6
				c0,3.2-0.4,5.8-1.2,7.9c-0.8,2.1-1.9,3.8-3.4,4.9l5.5,14.7l-9.4-1l-3.9-12.4l-4.8-0.8v12.3l-9.7-1v-47.8L192.9,152.1z
				 M192.9,174.6c1.3,0.3,2.3-0.1,3-0.9c0.7-0.9,1-2.3,1-4.3c0-1.9-0.3-3.4-1-4.6c-0.7-1.2-1.7-1.9-3-2.3l-5.2-1.3v12.4L192.9,174.6
				z"/>
			<path class="st11" d="M240.4,178.4c-0.3-0.7-0.7-1.3-1.1-1.9c-0.4-0.6-0.8-1.1-1.2-1.5c-0.4-0.4-0.9-0.8-1.3-1.1
				c-0.4-0.3-0.9-0.5-1.3-0.6c-0.7-0.2-1.4-0.1-2,0.2c-0.6,0.3-1.2,0.9-1.6,1.7c-0.5,0.8-0.8,1.8-1.1,2.9c-0.3,1.2-0.4,2.5-0.4,3.9
				c0,1.5,0.1,2.8,0.4,4.1c0.3,1.3,0.6,2.4,1.1,3.4c0.5,1,1,1.8,1.6,2.3c0.6,0.6,1.3,0.9,2,1c0.4,0.1,0.8,0,1.3-0.2
				c0.5-0.2,1-0.4,1.5-0.8V188l-4.3-0.7v-7.7l9.1,2v16.6c-0.5,0.6-1,1.2-1.7,1.6c-0.6,0.5-1.3,0.9-2,1.3c-0.7,0.3-1.4,0.6-2.2,0.8
				c-0.7,0.2-1.5,0.2-2.2,0.1c-1-0.1-2-0.4-3-0.9c-1-0.5-1.8-1.2-2.7-2.2c-0.8-0.9-1.6-2-2.3-3.3c-0.7-1.3-1.3-2.7-1.8-4.2
				c-0.5-1.5-0.9-3.2-1.2-5c-0.3-1.8-0.4-3.6-0.4-5.6c0-1.9,0.1-3.7,0.4-5.4c0.3-1.7,0.7-3.2,1.2-4.5c0.5-1.3,1.1-2.5,1.8-3.5
				c0.7-1,1.5-1.7,2.4-2.3c0.9-0.6,1.8-0.9,2.8-1.1c1-0.1,2,0,3.1,0.3c0.7,0.2,1.5,0.6,2.2,1.1c0.7,0.5,1.5,1.1,2.1,1.7
				c0.7,0.7,1.3,1.4,1.9,2.3c0.6,0.8,1.1,1.7,1.6,2.7L240.4,178.4z"/>
			<polygon class="st10" points="212.4,102.9 203.4,98.9 203.4,140.5 163.9,128.2 163.9,81.3 151.6,75.8 185.7,49.9 			"/>
			<polygon class="st9" points="218.3,101.8 209.6,97.8 209.6,138.6 171.8,126.4 171.8,80.5 160,75.1 192.6,49.9 			"/>
			<polyline class="st10" points="209.6,138.6 203.4,140.5 203.4,136.6 			"/>
			<polyline class="st10" points="212.4,102.9 218.3,101.8 209.6,97.8 			"/>
			<polyline class="st10" points="192.6,49.9 185.7,49.9 187.6,53.7 			"/>
		</g>
	
		<path class="st12" d="M245.9,153.8l-24.6-8.7c-0.9-0.3-1.8-0.6-2.8-0.7c-0.3,0-0.6-0.1-0.9-0.1c-1.1,0-2.1,0.3-3.1,0.7
			c-0.5-0.6-1-1.2-1.6-1.8c1.4-1,2.3-2.7,2.3-4.5v-30.6l4.1-0.7c1.7-0.3,3.2-1.4,4-2.9c0.1-0.2,0.2-0.4,0.3-0.6l0.1-0.3
			c0.5-1.3,0.4-2.7-0.2-3.9l-25.8-52.2c-0.1-0.2-0.2-0.3-0.3-0.5l-0.2-0.3c-0.7-1.1-1.9-1.9-3.2-2.2l-0.3-0.1
			c-0.3-0.1-0.7-0.1-1-0.1c0,0-7,0-7,0c-0.1,0-0.2,0-0.4,0l-0.2,0c-1,0.1-1.9,0.4-2.6,1c0,0-34.3,26-34.3,26.1
			c-1.5,1.2-2.3,3.2-2.1,5.1c0,0.1,0,0.3,0.1,0.4l0.1,0.4c0.3,1.6,1.4,2.9,2.9,3.5l9.2,4.1v39.3c-2.2-2.6-4.9-4.6-7.8-5.7L85.4,94.9
			c-2.2-1-4.3-1.7-6.3-2c-1-0.3-2.1-0.4-3.2-0.4c-3.2,0-6.6,1-8.8,2.7c-2.8,2.1-3.8,4.2-4.6,5.5c-1.1,2.2-1.4,5.2-1.4,6
			c0,0.1,0,0.2,0,0.3v91.8c0,3.1,0.8,5.5,1.1,6.3c0.4,1.2,1.9,5,6.1,8.6c4.9,4.1,10.8,4.4,11.8,4.4c2,0.1,66.7,1.7,70.5,1.7
			c0,0,0,0,0,0c0.3,0,0.5,0,0.8,0c1.1-0.1,2.8-0.3,4.6-1.3l0.3-0.1c0.7-0.4,1.5-0.8,2.5-1.7c0.1,0.1,0.1,0.2,0.2,0.3
			c3.4,3.9,7.8,4.1,8.6,4.1c0,0,0,0,0,0c0.4,0,36.5,0.7,40.3,0.7c0.5,0,0.8,0,1.1-0.1c0.8-0.1,2.4-0.3,4-1.5l0.1-0.1
			c0.1,0,0.1-0.1,0.2-0.1c1.8,1.4,3.8,2,5.3,2c0,0,0,0,0,0c0.2,0,23.3,0.4,26.2,0.4c0.5,0,0.9,0,1.3-0.1c0.6-0.1,2.3-0.4,3.7-1.7
			l0.1-0.1c0.9-0.7,1.5-1.5,2.2-2.7c1.1-1.9,1.5-4.2,1.6-4.9c0,0,0-0.2,0-0.2c0.1-1.2,0.1-2.3,0.1-3.7v-40.6
			C253.7,162.5,251.3,155.7,245.9,153.8z"/>
		<path class="st12" d="M131.7,133.3"/>
		<path class="st12" d="M78.3,133.3"/>
	</g>
</g>
</svg>
