<?xml version="1.0" encoding="UTF-8"?>
<svg xmlns="http://www.w3.org/2000/svg" viewBox="0 0 1056 816" height="816" width="1056">
  <defs>
    <clipPath id="a">
      <path d="M0 612h792V0H0z"></path>
    </clipPath>
  </defs>
  <g clip-path="url(#a)" transform="matrix(1.33333 0 0 -1.33333 0 816)">
    <path d="M257.034 421.14c-7.604 9.91-24.996 12.522-36.997 12.522-3.604 0-16-.522-16-8 0-5.916 6.8-7.654 24.799-10.264 23.798-3.48 57.196-8.871 57.196-37.921 0-31.66-31.803-44.703-65.393-44.703-29.998 0-56.601 7.13-73.197 26.963l34.199 19.134c6.795-12.173 25.395-16.182 39.394-16.182 13.4 0 21.2 3.312 21.2 9.395 0 7.135-8.996 8.524-34.397 12.352-29.596 4.518-48.597 15.309-48.597 37.05 0 32.879 35.796 41.745 61.794 41.745 25.198 0 49.6-6.608 64.192-21.74z" fill="#72177a"></path>
    <path d="M496.69 421.14c-7.813 9.91-25.695 12.522-38.034 12.522-3.699 0-16.449-.522-16.449-8 0-5.916 6.991-7.654 25.496-10.264 24.465-3.48 58.8-8.871 58.8-37.921 0-31.66-32.69-44.703-67.232-44.703-30.838 0-58.185 7.13-75.242 26.963l35.15 19.134c6.991-12.173 26.115-16.182 40.503-16.182 13.778 0 21.795 3.312 21.795 9.395 0 7.135-9.253 8.524-35.36 12.352-30.43 4.518-49.96 15.309-49.96 37.05 0 32.879 36.8 41.745 63.525 41.745 25.908 0 50.993-6.608 65.997-21.74z" fill="#bb8bc4"></path>
    <path d="M364.161 336.426v47.316h-49.726v-47.316H273.23v124.099h41.205v-45.991h49.726v45.99h41.572V336.427z" fill="#9952a3"></path>
    <path d="M167.88 482.277c.354-.392.646-.705 1.33-1.078a5.708 5.708 0 0 1 2.663-.665c1.369 0 2.544.646 2.544 1.606 0 1.095-1.39 1.271-2.405 1.408-.767.1-1.53.197-2.273.354-.84.176-3.717.782-3.717 3.757 0 3.562 3.17 4.62 5.556 4.62 3.193 0 4.913-1.546 6.108-2.623l-2.544-1.82c-.43.428-.822.802-1.37 1.115-.49.274-1.37.607-2.251.607-1.371 0-2.055-.784-2.055-1.449 0-1.058 1.175-1.214 1.76-1.292 1.468-.176 3.446-.548 4.228-.822 1.588-.587 2.388-1.82 2.388-3.385 0-.999-.371-2.095-1.095-2.937-1.251-1.448-3.248-1.859-5.186-1.859-3.896 0-5.442 1.8-6.304 2.8zM184.37 489.4v-4.187h2.076c1.29 0 2.858.039 2.858 2.172 0 2.015-1.742 2.015-2.742 2.015zm-3.464 2.546h5.559c2.27 0 4.288 0 5.5-1.741.528-.784.785-1.9.785-2.84 0-.763-.156-1.505-.472-2.152-1.192-2.466-3.737-2.525-5.615-2.563h-2.292v-4.522h-3.465zM195.356 491.946h10.215v-2.682h-6.77v-2.505h6.32v-2.624h-6.32v-3.287h7.377v-2.72h-10.822zM220.934 481.28c-.507-.804-.999-1.587-2.094-2.35a6.716 6.716 0 0 0-3.854-1.214c-3.66 0-6.617 2.661-6.617 7.34 0 4.09 2.78 7.32 6.694 7.32 1.587 0 2.994-.549 4.034-1.37.957-.763 1.407-1.526 1.8-2.212l-2.739-1.369c-.198.45-.433.92-1.038 1.428-.666.528-1.332.685-1.9.685-2.23 0-3.406-2.074-3.406-4.384 0-3.033 1.546-4.54 3.406-4.54 1.801 0 2.526 1.251 2.995 2.055zM226.979 478.128h-3.444v13.818h3.444zM236.183 488.658a80.2 80.2 0 0 0-.57-2.135c-.292-1.036-.82-2.661-1.132-3.698h3.503zm1.86 3.289l5.09-13.82h-3.681l-.685 2.213h-5.09l-.683-2.212h-3.682l5.129 13.819zM245.504 491.965h3.446v-10.92h5.402v-2.917h-8.848zM260.336 478.128h-3.446v13.818h3.446zM265.526 482.277c.354-.392.646-.705 1.33-1.078a5.7 5.7 0 0 1 2.663-.665c1.37 0 2.544.646 2.544 1.606 0 1.095-1.39 1.271-2.407 1.408-.765.1-1.526.197-2.27.354-.843.176-3.718.782-3.718 3.757 0 3.562 3.17 4.62 5.558 4.62 3.192 0 4.912-1.546 6.106-2.623l-2.544-1.82c-.43.428-.822.802-1.37 1.115-.49.274-1.371.607-2.251.607-1.371 0-2.055-.784-2.055-1.449 0-1.058 1.173-1.214 1.763-1.292 1.465-.176 3.443-.548 4.227-.822 1.584-.587 2.386-1.82 2.386-3.385 0-.999-.371-2.095-1.095-2.937-1.254-1.448-3.248-1.859-5.186-1.859-3.896 0-5.442 1.8-6.303 2.8zM277.514 491.965h10.645v-2.74h-3.58v-11.097h-3.466v11.097h-3.599zM308.776 491.946v-13.818h-3.465v5.891h-5.05v-5.89h-3.484v13.817h3.483v-4.992h5.051v4.992zM315.998 478.128h-3.445v13.818h3.445zM329.457 479.42c-.567-.529-1.743-1.606-4.07-1.606-3.858 0-6.226 3.131-6.226 7.202 0 4.444 2.877 7.4 6.811 7.4 3.661 0 5.443-2.35 6.087-3.19l-2.623-1.586c-.488.742-1.29 1.957-3.209 1.957-2.622 0-3.62-2.173-3.62-4.482 0-1.567.43-2.838 1.095-3.523.53-.568 1.467-.999 2.525-.999.625 0 1.33.157 1.897.528.902.588 1.02 1.333 1.117 2.056h-3.092v2.622h6.01v-7.67h-2.702zM347.641 491.946v-13.818h-3.465v5.891h-5.048v-5.89h-3.484v13.817h3.484v-4.992h5.048v4.992zM358.863 482.277c.354-.392.646-.705 1.33-1.078a5.714 5.714 0 0 1 2.663-.665c1.37 0 2.544.646 2.544 1.606 0 1.095-1.39 1.271-2.405 1.408-.764.1-1.528.197-2.272.354-.84.176-3.718.782-3.718 3.757 0 3.562 3.172 4.62 5.559 4.62 3.19 0 4.91-1.546 6.105-2.623l-2.544-1.82c-.43.428-.822.802-1.37 1.115-.49.274-1.368.607-2.251.607-1.371 0-2.055-.784-2.055-1.449 0-1.058 1.175-1.214 1.763-1.292 1.465-.176 3.443-.548 4.227-.822 1.586-.587 2.386-1.82 2.386-3.385 0-.999-.371-2.095-1.095-2.937-1.251-1.448-3.248-1.859-5.186-1.859-3.896 0-5.442 1.8-6.303 2.8zM371.9 491.946h3.287v-5.638l5.167 5.638h4.15l-4.894-5.129 5.284-8.689H381l-3.7 6.262-2.112-2.213v-4.049H371.9zM390.451 478.128h-3.443v13.818h3.443zM394.216 491.965h3.446v-10.92h5.4v-2.917h-8.846zM405.611 491.965h3.445v-10.92h5.401v-2.917h-8.846zM419.057 482.277c.352-.392.646-.705 1.33-1.078a5.7 5.7 0 0 1 2.664-.665c1.368 0 2.544.646 2.544 1.606 0 1.095-1.391 1.271-2.41 1.408-.762.1-1.524.197-2.268.354-.842.176-3.717.782-3.717 3.757 0 3.562 3.168 4.62 5.556 4.62 3.192 0 4.912-1.546 6.108-2.623l-2.544-1.82c-.432.428-.823.802-1.372 1.115-.49.274-1.37.607-2.251.607-1.37 0-2.056-.784-2.056-1.449 0-1.058 1.176-1.214 1.76-1.292 1.47-.176 3.449-.548 4.23-.822 1.586-.587 2.389-1.82 2.389-3.385 0-.999-.37-2.095-1.095-2.937-1.254-1.448-3.251-1.859-5.188-1.859-3.895 0-5.441 1.8-6.304 2.8zM453.394 491.946v-13.818h-3.31l.216 9.843.042 1.391-.118-.489c-.177-.785-.198-.88-.353-1.469l-2.603-9.276h-2.975l-2.506 8.884-.608 2.468c.06-1.097.06-1.33.118-2.643l.178-8.709h-3.35v13.818h5.051l2.115-7.75.49-2.214c.195.961.214 1.06.37 1.704l2.212 8.26zM462.64 488.658a93.435 93.435 0 0 0-.565-2.135c-.295-1.036-.826-2.661-1.138-3.698h3.505zm1.86 3.289l5.089-13.82h-3.681l-.684 2.213h-5.09l-.684-2.212h-3.68l5.129 13.819zM474.16 491.946h3.465v-9.964c0-1.27 0-2.134-.687-2.895-.762-.862-2.054-.959-3.172-.959h-2.307v2.798h.588c1.86 0 2.112.215 2.112 1.427zM489.963 488.481c-.59.626-1.486 1.018-2.428 1.018-2.094 0-3.423-1.839-3.423-4.345 0-3.288 1.837-4.502 3.463-4.502 1.642 0 3.406 1.175 3.503 4.071.059 1.449-.331 2.917-1.115 3.758m-2.388-10.745c-4.384 0-6.871 3.366-6.871 7.359 0 3.739 2.368 7.282 6.812 7.282.82 0 1.682-.119 2.523-.412 4.23-1.467 4.503-6.067 4.503-7.007 0-2.388-1.095-4.54-2.624-5.774-1.35-1.115-2.915-1.448-4.343-1.448M501.148 489.362v-3.738h2.86c.488.02 2.075.059 2.075 1.9 0 1.76-1.274 1.818-1.998 1.838zm-3.464 2.584h6.225c1.447-.02 3.248-.04 4.52-1.408.645-.725 1.096-1.822 1.096-3.074 0-2.78-1.899-3.466-2.835-3.816l3.188-5.52h-3.815l-2.742 4.93h-2.173v-4.93h-3.464z" fill="#72177a"></path>
    <path d="M597.846 459.426a6.42 6.42 0 0 0-1.402-2.105 6.482 6.482 0 0 0-9.162-.005 6.483 6.483 0 0 0 0 9.16 6.482 6.482 0 0 0 9.162 0 6.432 6.432 0 0 0 1.506-2.434h47.548l-53.482 53.485-55.923-55.923 55.923-55.923 53.744 53.745z" fill="#9952a3"></path>
    <path d="M652.884 460.397v-27.312a5.202 5.202 0 0 0 2.822-3.75h.036l4.128-46.512-2.285-.152-3.597 38.985 1.797-39.084-2.28-.077-1.805 39.11v-39.137h-2.285v39.088l-1.801-39.054-2.286.074 1.802 39.067-3.6-38.968-2.281.158 4.124 46.502h.078a5.205 5.205 0 0 0 2.82 3.75v19.278l-56.33-57.355-64.475 65.375h-14.491V336.702h39.1v47.288l39.718-35.475 39.3 35.475v-47.288h39.275v123.68z" fill="#72177a"></path>
    <path d="M315.773 144.427v22.453h7.741v-5.466c3.7-6.725 8.551-10.098 14.542-10.098 3.051 0 5.63.937 7.736 2.802 2.106 1.873 3.156 4.318 3.156 7.338 0 2.937-.863 5.056-2.577 6.345-1.726 1.289-4.968 2.569-9.743 3.84-5.542 1.486-9.647 2.888-12.32 4.208-2.669 1.314-4.794 3.204-6.378 5.646-1.587 2.449-2.38 5.344-2.38 8.69 0 5.194 1.726 9.338 5.181 12.438 3.453 3.095 7.785 4.645 13.01 4.645 4.947 0 9.544-1.607 13.788-4.808v4.14h7.557v-18.77h-7.557v4.315c-3.176 4.777-7.554 7.156-13.122 7.156-3.382 0-5.978-.77-7.785-2.328-1.803-1.56-2.709-3.416-2.709-5.585 0-1.657.461-3.118 1.377-4.374a8.184 8.184 0 0 1 3.514-2.787c1.42-.59 4.22-1.422 8.406-2.484 5.456-1.42 9.411-2.741 11.875-3.974 2.454-1.238 4.578-3.28 6.354-6.16 1.781-2.875 2.671-6.18 2.671-9.922 0-5.28-1.86-9.64-5.58-13.078-3.722-3.438-8.325-5.163-13.807-5.163-5.637 0-10.708 2.039-15.209 6.095v-5.114zM377.738 177.09l19.833 21.455H390.5v7.74h24.243v-7.74h-6.585l-19.051-21.455 19.58-24.925h6.625v-7.738h-25.125v7.738h6.674zm-9.653-24.925v46.38h-7.74v7.74h25.042v-7.74h-7.963v-46.38h7.119v-7.738h-24.198v7.738zM426.685 152.165v46.38h-6.665v7.74h22.686v-7.74h-6.675v-46.38h6.675v-7.738H420.02v7.738zM456.435 152.165v46.38h-8.006v7.74h25.309v-7.74h-7.607v-46.38h18.948V173.2h8.717v-28.773h-45.367v7.738zM506.889 152.165v46.38h-8v7.74h25.303v-7.74h-7.6v-46.38h18.938V173.2h8.719v-28.773h-45.36v7.738zM549.71 144.427v22.453h7.736v-5.466c3.705-6.725 8.552-10.098 14.544-10.098 3.048 0 5.633.937 7.737 2.802 2.102 1.873 3.156 4.318 3.156 7.338 0 2.937-.858 5.056-2.579 6.345-1.719 1.289-4.966 2.569-9.735 3.84-5.546 1.486-9.655 2.888-12.32 4.208-2.666 1.314-4.802 3.204-6.388 5.646-1.579 2.449-2.373 5.344-2.373 8.69 0 5.194 1.723 9.338 5.18 12.438 3.452 3.095 7.787 4.645 13.015 4.645 4.941 0 9.535-1.607 13.783-4.808v4.14h7.557v-18.77h-7.557v4.315c-3.177 4.777-7.549 7.156-13.125 7.156-3.383 0-5.976-.77-7.777-2.328-1.819-1.56-2.712-3.416-2.712-5.585 0-1.657.461-3.118 1.379-4.374a8.176 8.176 0 0 1 3.507-2.787c1.427-.59 4.231-1.422 8.41-2.484 5.45-1.42 9.412-2.741 11.869-3.974 2.46-1.238 4.58-3.28 6.368-6.16 1.773-2.875 2.664-6.18 2.664-9.922 0-5.28-1.865-9.64-5.577-13.078-3.73-3.438-8.333-5.163-13.817-5.163-5.629 0-10.7 2.039-15.209 6.095v-5.114zM597.443 155.4v10.937h10.941v-9.519c0-3.224-.253-5.735-.753-7.515-.507-1.777-1.58-3.235-3.22-4.372-1.653-1.15-3.968-1.76-6.968-1.854v4.631c3.563.53 5.34 2.743 5.34 6.625 0 .238-.015.59-.04 1.067z" fill="#bb8bc4"></path>
    <path d="M304.28 88.955h-11.776l-14.982-10.62v-4.362h-4.46v14.672h4.46V84.15l11.032 7.884-11.032 7.193v-4.475h-4.46v14.206h4.46v-4.717l14.982-9.903h11.775v4.876h4.463V84.156h-4.463z" fill="#72177a"></path>
    <path d="M290.76 110.103c3.915 0 7.2 1.147 9.85 3.439 2.646 2.289 3.975 5.299 3.975 9.028 0 3.694-1.358 6.727-4.067 9.11-2.71 2.374-5.949 3.562-9.709 3.562-3.793 0-7.006-1.215-9.63-3.631-2.627-2.42-3.937-5.458-3.937-9.12 0-3.64 1.288-6.617 3.87-8.922 2.583-2.312 5.802-3.466 9.647-3.466m-.027-5.873c-5.177 0-9.514 1.692-13.002 5.08-3.49 3.388-5.233 7.799-5.233 13.236 0 5.489 1.742 9.957 5.233 13.41 3.488 3.454 7.854 5.185 13.108 5.185 5.35 0 9.763-1.758 13.244-5.271 3.484-3.515 5.222-7.983 5.222-13.406 0-3.452-.827-6.626-2.476-9.527-1.647-2.897-3.95-5.072-6.9-6.528-2.95-1.454-6.013-2.18-9.196-2.18" fill="#72177a"></path>
    <path d="M277.522 191.08c0 1.884.11 3.275.321 4.194.213.91.721 1.68 1.527 2.305.801.625 1.79.936 2.951.936 1.364 0 2.456-.304 3.266-.92a4.356 4.356 0 0 0 1.619-2.374c.267-.965.399-2.47.399-4.503v-4.205h-10.082zm30.665-24.75c-.749 1.703-1.737 3.03-2.977 3.97-1.236.937-2.425 1.517-3.567 1.726-1.131.217-2.953.325-5.472.325h-18.648v8.776h26.757v-4.9h4.463v14.852h-4.463v-4.566h-12.214v5.024l16.677 8.127v7.73h-4.463v-4.363l-12.986-6.299c-1.21 4.896-4.175 7.354-8.894 7.354-2.258 0-4.146-.585-5.66-1.749-1.512-1.162-2.504-2.632-2.976-4.41-.466-1.78-.701-4.18-.701-7.209V162.86h4.46v4.128h18.112c2.748 0 4.673-.18 5.754-.548 1.085-.37 1.95-1.114 2.587-2.245.647-1.128.967-3.507.967-5.627 0-1.78-.374-3.983-1.116-5.11-.743-1.129-1.648-1.834-2.704-2.113-1.065-.28-2.978-.424-5.747-.424h-17.854v4.232h-4.46v-14.029h4.46v4.41h18.113c2.77 0 4.81.15 6.125.448 1.316.295 2.56.903 3.726 1.806 1.158.907 2.081 2.256 2.775 4.054.693 1.797 1.043 5.545 1.043 8.248 0 2.444-.375 4.523-1.117 6.24" fill="#bb8bc4"></path>
    <path d="M323.59 85.723v46.384h-7.827v7.737h47.985V121.21h-7.65v10.897H332.93v-18.322h19.967v-7.741H332.93V85.723h7.918v-7.744h-25.085v7.744zM382.565 132.106V101.15c0-4.799.244-8.117.729-9.962.493-1.828 1.714-3.392 3.672-4.68 1.957-1.297 4.477-1.945 7.557-1.945 3.67 0 6.499.562 8.452 1.671 1.959 1.11 3.246 2.61 3.889 4.49.635 1.88.957 5.215.957 9.985v31.398h-7.16v7.737h24.192v-7.737h-7.736V99.772c0-4.36-.191-7.525-.556-9.49-.371-1.976-1.38-4.037-2.994-6.18-1.64-2.155-3.94-3.867-6.898-5.166-2.971-1.29-6.57-1.934-10.811-1.934-4.691 0-8.582.604-11.697 1.802-3.111 1.2-5.455 2.814-7.023 4.823-1.575 2.023-2.621 4.174-3.135 6.451-.526 2.286-.784 5.827-.784 10.63v31.398h-7.647v7.737H389.9v-7.737zM447.49 85.723v46.384h-12.758v-15.788h-7.649v23.525h50.113v-23.525h-7.649v15.788H456.83V85.723h8.046v-7.744h-25.304v7.744zM496.412 132.106V101.15c0-4.799.244-8.117.73-9.962.492-1.828 1.714-3.392 3.664-4.68 1.97-1.297 4.485-1.945 7.572-1.945 3.666 0 6.488.562 8.45 1.671 1.951 1.11 3.244 2.61 3.887 4.49.634 1.88.958 5.215.958 9.985v31.398h-7.163v7.737h24.2v-7.737h-7.746V99.772c0-4.36-.19-7.525-.554-9.49-.373-1.976-1.373-4.037-2.997-6.18-1.635-2.155-3.936-3.867-6.897-5.166-2.967-1.29-6.57-1.934-10.806-1.934-4.689 0-8.583.604-11.695 1.802-3.117 1.2-5.458 2.814-7.029 4.823-1.58 2.023-2.62 4.174-3.134 6.451-.526 2.286-.779 5.827-.779 10.63v31.398h-7.648v7.737h24.327v-7.737zM558.849 114.628h7.29c3.53 0 6.13.228 7.807.696 1.674.45 3.047 1.38 4.119 2.798 1.06 1.404 1.602 3.302 1.602 5.666 0 2.017-.542 3.726-1.628 5.116-1.086 1.395-2.42 2.276-4.007 2.645-1.586.364-4.004.558-7.265.558h-7.918zm-9.34-28.905v46.384h-8.49v7.737h25.12c5.25 0 9.416-.411 12.494-1.22 3.087-.823 5.634-2.537 7.657-5.162 2.018-2.618 3.025-5.897 3.025-9.81 0-8.177-4.256-13.326-12.752-15.421l10.928-22.508h7.559v-7.744h-13.398l-14.083 28.912h-8.72V85.723h7.918v-7.744h-25.748v7.744zM605.365 85.723v46.384h-7.997v7.737h51.405V121.21h-7.65v10.897h-26.42v-18.414h23.002v-7.74h-23.002v-20.23h26.42v11.249h7.65V77.979h-51.405v7.744zM658.123 88.925h10.941V77.979h-10.941zM635.317 155.897l-27.327 27.325 27.327 27.325 27.324-27.326z" fill="#72177a"></path>
    <path d="M665.234 182.55v-13.457a2.57 2.57 0 0 0 1.397-1.85h.016l2.034-22.92-1.129-.074-1.768 19.209.88-19.258-1.117-.04-.89 19.273V144.15h-1.13v19.259l-.886-19.243-1.128.033.89 19.255-1.779-19.206-1.118.079 2.034 22.915h.037a2.554 2.554 0 0 0 1.388 1.85v12.993l-1.237-.01h-23.612a3.22 3.22 0 0 0-.69-1.04 3.2 3.2 0 0 0-4.514-.004 3.193 3.193 0 1 0 4.514 4.517c.35-.351.586-.764.74-1.2h27.068z" fill="#bb8bc4"></path>
  </g>
</svg>
