<svg width="500" height="500" viewBox="0 0 500 500" fill="none" xmlns="http://www.w3.org/2000/svg">
<path d="M360.8 273.36C371.68 265.51 382.61 257.48 391.94 247.79C401.27 238.1 409.4 225.75 413.6 212.23C421.82 185.79 416.25 156.33 400.19 133.98C395.68 127.7 390.57 122.08 384.83 116.9C381.9 114.25 378.93 111.62 376.42 108.55C376.06 108.11 375.53 107.2 376.78 109.04C376.51 108.64 376.21 108.27 375.93 107.87C375.49 107.23 375.07 106.58 374.67 105.91C373.84 104.53 373.12 103.09 372.48 101.61L373.24 103.4C371.85 100.09 370.93 96.63 370.45 93.08L370.72 95.07C370.23 91.23 370.26 87.36 370.75 83.52L370.48 85.51C371.04 81.4 372.12 77.4 373.71 73.56L372.95 75.35C373.76 73.45 374.68 71.59 375.73 69.81C376.22 68.97 376.75 68.16 377.3 67.36C377.61 66.91 377.94 66.47 378.25 66.03C378.77 65.3 377.18 67.38 377.74 66.68C377.93 66.44 378.12 66.21 378.31 65.97C379.61 64.38 380.51 62.79 380.51 60.67C380.51 58.83 379.69 56.63 378.31 55.37C375.57 52.85 370.35 52.12 367.7 55.37C362.67 61.54 358.93 68.58 357 76.33C355.07 84.08 354.88 92.08 356.45 99.89C358.02 107.7 361.89 114.95 367.27 120.84C370.14 123.99 373.42 126.71 376.54 129.61C379.34 132.21 381.97 134.98 384.42 137.92C384.77 138.34 385.11 138.76 385.45 139.18C385.62 139.39 385.79 139.6 385.96 139.82C386.59 140.6 385.68 139.44 385.54 139.26C386.22 140.1 386.85 140.99 387.47 141.87C388.73 143.63 389.92 145.44 391.05 147.3C393.3 151 395.27 154.86 396.96 158.85L396.2 157.06C399 163.74 400.95 170.74 401.95 177.92L401.68 175.93C402.62 183.02 402.63 190.2 401.71 197.29L401.98 195.3C401.06 202.1 399.29 208.74 396.65 215.07L397.41 213.28C395.65 217.44 393.53 221.44 391.05 225.22C390.45 226.14 389.82 227.05 389.18 227.95C388.9 228.34 388.62 228.73 388.33 229.12C388.17 229.34 388 229.56 387.84 229.78C387.12 230.73 387.84 229.83 388.13 229.41C386.87 231.19 385.34 232.85 383.88 234.47C377.93 241.09 371.15 246.9 364.14 252.36C363.95 252.51 363.33 252.98 364.24 252.29C365.25 251.51 364.23 252.29 364 252.47C363.44 252.89 362.89 253.32 362.33 253.74C361.38 254.45 360.43 255.16 359.48 255.87C357.41 257.4 355.32 258.91 353.24 260.42C351.61 261.59 350.34 262.9 349.79 264.9C349.3 266.7 349.52 269.09 350.55 270.68C352.58 273.83 357.41 275.83 360.81 273.37L360.8 273.36Z" fill="#6B4B33"/>
<path d="M373.94 214.97C376.93 223.94 378.54 233.4 378.54 243.2C378.54 300 311 332 256.5 335.5C208 335.5 183.5 320.5 183.5 320.5C184.95 321.62 182 319.45 183.5 320.5C161.17 307.51 152.43 293.87 144.49 279.08C140.69 280.93 148.24 276.54 144.49 279.08C139.6 267.9 136.92 255.82 136.92 243.19C136.92 233.88 138.37 224.89 141.09 216.32C130.91 208.08 124.4 195.47 124.4 181.35C124.4 156.49 144.55 136.33 169.42 136.33C182.79 136.33 194.82 142.15 203.05 151.44C219.45 144.34 238.04 140.33 257.73 140.33C277.42 140.33 294.89 144.1 310.94 150.82C319.18 141.92 330.94 136.34 344.02 136.34C368.88 136.34 389.04 156.49 389.04 181.36C389.04 194.73 383.22 206.74 373.95 214.97H373.94Z" fill="#92653F"/>
<path d="M315.1 270.61C308.37 300.71 267.73 317.24 224.32 307.53C180.91 297.82 151.18 265.56 157.91 235.46C164.64 205.36 197.61 171.69 248.69 198.54C306.54 193.16 321.83 240.51 315.1 270.61Z" fill="#DC9D5D"/>
<path d="M185.36 242.06C189.28 242.06 193.04 238.61 192.86 234.56C192.68 230.51 189.56 227.06 185.36 227.06C181.44 227.06 177.68 230.51 177.86 234.56C178.04 238.61 181.16 242.06 185.36 242.06Z" fill="#6B4B33"/>
<path d="M251.59 262.08C255.51 262.08 259.27 258.63 259.09 254.58C258.91 250.53 255.79 247.08 251.59 247.08C247.67 247.08 243.91 250.53 244.09 254.58C244.27 258.63 247.39 262.08 251.59 262.08Z" fill="#6B4B33"/>
<path d="M146.19 198.09C137.85 197.87 134.61 172.59 147.45 158.94C160.4 145.17 186.14 147.46 186.3 155.88C186.43 162.51 152.47 198.26 146.19 198.09Z" fill="#DC9D5D"/>
<path d="M324.86 158.13C324.82 149.78 349.98 145.75 364.03 158.15C378.2 170.65 376.73 196.45 368.32 196.89C361.7 197.23 324.89 164.42 324.86 158.14V158.13Z" fill="#DC9D5D"/>
<path d="M242.5 148.34C243.66 145.08 243.17 141.61 242.27 138.35C241.28 134.76 239.99 131.24 238.82 127.7L236.24 128.86C241.23 131.39 246.02 134.28 250.59 137.5C251.31 138.01 253 137.5 253.18 136.59C253.99 132.57 255.02 128.61 256.29 124.71L253.5 125.46C255.54 127.21 257.14 129.35 258.7 131.52C259.46 132.58 260.22 133.65 261.04 134.67C261.86 135.69 262.57 136.44 263.91 136.33C266.25 136.14 268.54 133.87 270.26 132.45C271.31 131.58 272.35 130.69 273.43 129.86C273.92 129.49 274.41 129.13 274.92 128.79C275.2 128.6 275.49 128.42 275.78 128.25C275.94 128.15 276.79 127.87 276.37 127.9L275.4 127.74C275.89 128.02 275.53 129.78 275.48 130.23C275.38 131.07 275.22 131.91 275.03 132.74C274.66 134.33 274.16 135.89 273.66 137.45C272.6 140.78 271.54 144.11 270.48 147.44C270.11 148.61 273.04 148.26 273.4 147.15C274.9 142.43 276.65 137.71 277.84 132.9C278.14 131.7 278.37 130.48 278.46 129.25C278.52 128.48 278.68 127.46 278.28 126.77C277.22 124.98 274.56 126.75 273.41 127.49C271.65 128.61 270.07 129.99 268.47 131.31C267.72 131.94 266.95 132.55 266.16 133.13C265.72 133.45 265.28 133.76 264.82 134.05C264.6 134.19 264.37 134.33 264.14 134.46C264.57 134.46 264.61 134.33 264.25 134.09C264.11 133.68 263.49 133.15 263.22 132.8C262.89 132.36 262.56 131.92 262.23 131.47C261.66 130.69 261.11 129.9 260.53 129.13C259.23 127.36 257.85 125.67 256.18 124.24C255.38 123.55 253.72 123.96 253.39 124.99C252.13 128.89 251.09 132.85 250.28 136.87L252.87 135.96C248.3 132.74 243.5 129.85 238.52 127.32C237.87 126.99 235.56 127.32 235.94 128.48C237.06 131.87 238.27 135.25 239.26 138.68C240.25 142.11 240.77 145.34 239.6 148.63C239.36 149.3 240.5 149.45 240.89 149.41C241.57 149.35 242.27 149 242.51 148.33L242.5 148.34Z" fill="#92653F"/>
<path d="M245.69 143.58C247.57 143.58 250.26 142.14 250.49 140.09C250.74 137.82 248.16 137.28 246.48 137.28C244.6 137.28 241.91 138.72 241.68 140.77C241.43 143.04 244.01 143.58 245.69 143.58Z" fill="#92653F"/>
<path d="M259.13 138.44V132.75C259.12 131.01 259.25 129.21 258.75 127.53C258.3 126.05 252.94 127.54 252.95 129.08C252.99 133.87 251.83 138.51 250.65 143.12L256.41 141.87C255.93 140.58 255.45 139.28 254.97 137.99C254.7 137.25 253.11 137.49 252.58 137.58C251.56 137.75 250.13 138.1 249.43 138.93L247.82 140.84L253.36 139.91C253.11 138.96 252.97 138.03 252.94 137.05C252.91 136.19 250.5 136.65 250.16 136.72C249.07 136.96 247.84 137.35 247.18 138.3C246.61 139.11 246.96 139.98 247.84 140.36C249.04 140.87 250.69 140.48 251.85 140.05C252.6 139.78 254.51 139.04 254.22 137.89C254.01 137.06 252.77 136.66 252.06 136.49C250.75 136.19 249.36 136.37 248.07 136.7C247.45 136.86 246.83 137.06 246.24 137.3C245.44 137.57 245.78 137.52 247.25 137.15C247.09 137.04 246.94 136.91 246.83 136.75C246.11 135.91 245.65 134.72 245.12 133.75C244.49 132.59 243.86 131.43 243.23 130.26L237.43 131.81C239.59 134.82 242.73 136.7 245.85 138.58C249.25 140.63 252.78 142.48 256.52 143.82C257.41 144.14 258.7 143.81 259.54 143.53C260.21 143.31 261.47 142.91 261.75 142.15C263.03 138.67 262.92 134.85 261.35 131.49L255.55 133.04C257.28 135.9 259.01 138.76 260.74 141.62C261.62 143.08 265.9 141.61 266.5 140.37C266.75 139.86 266.78 139.36 266.85 138.81C266.95 137.95 266.91 137.91 267.59 137.5C268.86 136.75 270.02 135.84 271.05 134.78C271.86 133.95 270.57 133.67 269.95 133.66C268.7 133.64 267.2 134.02 266.17 134.76C265 135.6 263.82 136.44 262.65 137.28C262.06 137.7 261.67 138.31 262.53 138.64C263.53 139.02 264.99 138.58 265.93 138.23C270.52 136.51 276.22 134.15 277.58 128.89C278.01 127.24 273.54 128.61 273.01 128.88C271.55 129.63 270.51 130.66 269.49 131.92C268.47 133.18 267.41 134.22 266.36 135.36C264.29 137.58 262.52 140.04 262.42 143.18C262.39 143.92 264.54 143.64 264.81 143.59C265.83 143.42 267.25 143.07 267.96 142.24C269.62 140.31 271.03 138.19 272.42 136.06L266.66 137.31C266.85 139.2 266.87 141.08 266.74 142.97C266.68 143.81 269.26 143.36 269.52 143.3C270.46 143.09 272.05 142.7 272.5 141.72C273.38 139.84 273.2 137.67 274.2 135.84L268.47 136.79L268.1 140.01C267.89 141.86 273.22 140.17 273.83 139.06C274.85 137.19 275.87 135.33 276.9 133.46C277.45 132.46 274.87 132.69 274.54 132.75C273.45 132.93 271.75 133.35 271.17 134.42C270.15 136.29 269.13 138.15 268.1 140.02L273.83 139.07L274.2 135.85C274.41 134 269.08 135.69 268.47 136.8C267.47 138.63 267.65 140.8 266.77 142.68L272.53 141.43C272.66 139.54 272.64 137.66 272.45 135.77C272.36 134.9 270.05 135.36 269.67 135.44C268.61 135.68 267.31 136.06 266.69 137.02C265.44 138.93 264.18 140.82 262.69 142.56L268.23 141.63C268.32 139.02 269.95 136.89 271.66 135.06C272.52 134.13 273.43 133.24 274.26 132.27C274.91 131.52 275.54 130.33 276.44 129.87H271.87C270.85 133.79 267.38 135.38 263.89 136.69L267.17 137.64C268.34 136.8 269.52 135.96 270.69 135.12L265.81 135.1C264.72 136.22 263.41 136.8 262.23 137.77C260.97 138.8 261.46 140.03 260.82 141.33L266.58 140.08C264.85 137.22 263.12 134.36 261.39 131.5C260.54 130.09 255.03 131.85 255.59 133.05C257.08 136.25 257.28 139.79 256.05 143.12L261.28 141.46C257.78 140.21 254.5 138.46 251.32 136.55C248.45 134.82 245.24 133.05 243.25 130.27C242.29 128.93 236.85 130.7 237.45 131.82C238.24 133.27 239.03 134.73 239.82 136.18C240.39 137.23 240.92 138.64 241.99 139.29C243.3 140.09 245.11 139.8 246.51 139.45C246.48 139.45 248.7 138.81 248.68 138.73L247.55 138.91L247.94 139.04C248.27 139.31 248.45 139.27 248.44 139.71L248.7 139.09L248.49 139.32L250.1 138.39L249.81 138.5L252.07 138C253.05 138 252.57 137.88 252.95 137.34L247.19 138.59C247.23 139.57 247.37 140.51 247.61 141.45C247.81 142.2 249.54 141.94 250 141.86C251.02 141.69 252.45 141.34 253.15 140.51L254.76 138.6L249.22 139.53C249.7 140.82 250.18 142.12 250.66 143.41C251.2 144.86 256.11 143.39 256.42 142.16C257.65 137.36 258.83 132.51 258.78 127.52L252.98 129.07C253.49 130.76 253.35 132.55 253.35 134.29V139.98C253.36 141.11 259.16 140.23 259.15 138.43L259.13 138.44Z" fill="#92653F"/>
<path d="M200.79 251.78C202.37 253.34 204.4 254.51 206.6 254.92C207.8 255.15 209.01 255.22 210.22 254.97C210.82 254.85 211.38 254.6 211.93 254.34C212.36 254.13 212.84 253.74 213.29 253.59L211.85 253.4L212.01 253.47L211.34 252.8C211.21 252.59 211.5 253.36 211.51 253.42C211.62 253.78 211.75 254.12 211.9 254.46C212.15 255.06 212.42 255.64 212.78 256.19C213.49 257.3 214.38 258.24 215.44 259.01C217.59 260.57 220.54 261.05 223.04 260.09C223.98 259.73 224.64 258.83 224.35 257.78C224.1 256.88 222.99 256.1 222.04 256.47C220.31 257.13 218.5 256.81 217.11 255.57C216.45 254.98 215.95 254.28 215.55 253.49C215.08 252.55 215.06 251.3 214.29 250.53C213.32 249.56 212.1 249.98 211.07 250.55C210.19 251.04 209.47 251.42 208.44 251.39C206.56 251.33 204.78 250.43 203.46 249.13C201.74 247.43 199.09 250.08 200.81 251.78H200.79Z" fill="#6B4B33"/>
</svg>
