<svg preserveAspectRatio="none" id="visual" viewBox="0 0 450 900" width="450" height="900" xmlns="http://www.w3.org/2000/svg" xmlns:xlink="http://www.w3.org/1999/xlink" version="1.1"><path d="M0 55L15 53.5C30 52 60 49 90 52C120 55 150 64 180 62.5C210 61 240 49 270 49C300 49 330 61 360 65.5C390 70 420 67 435 65.5L450 64L450 0L435 0C420 0 390 0 360 0C330 0 300 0 270 0C240 0 210 0 180 0C150 0 120 0 90 0C60 0 30 0 15 0L0 0Z" fill="#1289a1"></path><path d="M0 91L15 92.5C30 94 60 97 90 104.5C120 112 150 124 180 122.5C210 121 240 106 270 101.5C300 97 330 103 360 107.5C390 112 420 115 435 116.5L450 118L450 62L435 63.5C420 65 390 68 360 63.5C330 59 300 47 270 47C240 47 210 59 180 60.5C150 62 120 53 90 50C60 47 30 50 15 51.5L0 53Z" fill="#188fa8"></path><path d="M0 136L15 134.5C30 133 60 130 90 134.5C120 139 150 151 180 151C210 151 240 139 270 136C300 133 330 139 360 145C390 151 420 157 435 160L450 163L450 116L435 114.5C420 113 390 110 360 105.5C330 101 300 95 270 99.5C240 104 210 119 180 120.5C150 122 120 110 90 102.5C60 95 30 92 15 90.5L0 89Z" fill="#1e96ae"></path><path d="M0 190L15 188.5C30 187 60 184 90 184C120 184 150 187 180 182.5C210 178 240 166 270 166C300 166 330 178 360 187C390 196 420 202 435 205L450 208L450 161L435 158C420 155 390 149 360 143C330 137 300 131 270 134C240 137 210 149 180 149C150 149 120 137 90 132.5C60 128 30 131 15 132.5L0 134Z" fill="#239cb5"></path><path d="M0 235L15 233.5C30 232 60 229 90 230.5C120 232 150 238 180 236.5C210 235 240 226 270 224.5C300 223 330 229 360 235C390 241 420 247 435 250L450 253L450 206L435 203C420 200 390 194 360 185C330 176 300 164 270 164C240 164 210 176 180 180.5C150 185 120 182 90 182C60 182 30 185 15 186.5L0 188Z" fill="#28a2bc"></path><path d="M0 271L15 268C30 265 60 259 90 259C120 259 150 265 180 265C210 265 240 259 270 257.5C300 256 330 259 360 263.5C390 268 420 274 435 277L450 280L450 251L435 248C420 245 390 239 360 233C330 227 300 221 270 222.5C240 224 210 233 180 234.5C150 236 120 230 90 228.5C60 227 30 230 15 231.5L0 233Z" fill="#2da9c3"></path><path d="M0 361L15 352C30 343 60 325 90 328C120 331 150 355 180 359.5C210 364 240 349 270 341.5C300 334 330 334 360 338.5C390 343 420 352 435 356.5L450 361L450 278L435 275C420 272 390 266 360 261.5C330 257 300 254 270 255.5C240 257 210 263 180 263C150 263 120 257 90 257C60 257 30 263 15 266L0 269Z" fill="#31afc9"></path><path d="M0 559L15 548.5C30 538 60 517 90 517C120 517 150 538 180 536.5C210 535 240 511 270 514C300 517 330 547 360 556C390 565 420 553 435 547L450 541L450 359L435 354.5C420 350 390 341 360 336.5C330 332 300 332 270 339.5C240 347 210 362 180 357.5C150 353 120 329 90 326C60 323 30 341 15 350L0 359Z" fill="#36b6d0"></path><path d="M0 649L15 646C30 643 60 637 90 634C120 631 150 631 180 620.5C210 610 240 589 270 592C300 595 330 622 360 638.5C390 655 420 661 435 664L450 667L450 539L435 545C420 551 390 563 360 554C330 545 300 515 270 512C240 509 210 533 180 534.5C150 536 120 515 90 515C60 515 30 536 15 546.5L0 557Z" fill="#3abcd7"></path><path d="M0 820L15 812.5C30 805 60 790 90 790C120 790 150 805 180 805C210 805 240 790 270 784C300 778 330 781 360 782.5C390 784 420 784 435 784L450 784L450 665L435 662C420 659 390 653 360 636.5C330 620 300 593 270 590C240 587 210 608 180 618.5C150 629 120 629 90 632C60 635 30 641 15 644L0 647Z" fill="#3ec3dd"></path><path d="M0 874L15 872.5C30 871 60 868 90 866.5C120 865 150 865 180 863.5C210 862 240 859 270 859C300 859 330 862 360 863.5C390 865 420 865 435 865L450 865L450 782L435 782C420 782 390 782 360 780.5C330 779 300 776 270 782C240 788 210 803 180 803C150 803 120 788 90 788C60 788 30 803 15 810.5L0 818Z" fill="#43c9e4"></path><path d="M0 901L15 901C30 901 60 901 90 901C120 901 150 901 180 901C210 901 240 901 270 901C300 901 330 901 360 901C390 901 420 901 435 901L450 901L450 863L435 863C420 863 390 863 360 861.5C330 860 300 857 270 857C240 857 210 860 180 861.5C150 863 120 863 90 864.5C60 866 30 869 15 870.5L0 872Z" fill="#47d0eb"></path></svg>