<svg preserveAspectRatio="none" id="visual" viewBox="0 0 900 600" width="900" height="600" xmlns="http://www.w3.org/2000/svg" xmlns:xlink="http://www.w3.org/1999/xlink" version="1.1"><path d="M0 518L37.5 526.2C75 534.3 150 550.7 225 549.3C300 548 375 529 450 521.5C525 514 600 518 675 524.2C750 530.3 825 538.7 862.5 542.8L900 547L900 601L862.5 601C825 601 750 601 675 601C600 601 525 601 450 601C375 601 300 601 225 601C150 601 75 601 37.5 601L0 601Z" fill="#085e16" stroke-linecap="round" stroke-linejoin="miter"></path></svg>