<svg id="visual" viewBox="0 0 900 600" width="900" height="600" xmlns="http://www.w3.org/2000/svg" xmlns:xlink="http://www.w3.org/1999/xlink" version="1.1"><path d="M0 294L21.5 280.7C43 267.3 86 240.7 128.8 239.8C171.7 239 214.3 264 257.2 267.7C300 271.3 343 253.7 385.8 267.5C428.7 281.3 471.3 326.7 514.2 335.8C557 345 600 318 642.8 317.5C685.7 317 728.3 343 771.2 342.2C814 341.3 857 313.7 878.5 299.8L900 286L900 0L878.5 0C857 0 814 0 771.2 0C728.3 0 685.7 0 642.8 0C600 0 557 0 514.2 0C471.3 0 428.7 0 385.8 0C343 0 300 0 257.2 0C214.3 0 171.7 0 128.8 0C86 0 43 0 21.5 0L0 0Z" fill="#0f8a19" stroke-linecap="round" stroke-linejoin="miter"></path></svg>