<svg id="visual" viewBox="0 0 900 600" width="900" height="600" xmlns="http://www.w3.org/2000/svg" xmlns:xlink="http://www.w3.org/1999/xlink" version="1.1"><path d="M0 431L129 274L257 270L386 253L514 375L643 255L771 209L900 430L900 601L771 601L643 601L514 601L386 601L257 601L129 601L0 601Z" fill="#fdfeff"></path><path d="M0 262L129 452L257 328L386 397L514 393L643 415L771 259L900 281L900 601L771 601L643 601L514 601L386 601L257 601L129 601L0 601Z" fill="#d6d8d9"></path><path d="M0 356L129 314L257 398L386 321L514 440L643 406L771 341L900 463L900 601L771 601L643 601L514 601L386 601L257 601L129 601L0 601Z" fill="#b0b3b5"></path><path d="M0 516L129 376L257 458L386 498L514 436L643 441L771 414L900 379L900 601L771 601L643 601L514 601L386 601L257 601L129 601L0 601Z" fill="#8b9092"></path><path d="M0 512L129 481L257 548L386 458L514 471L643 488L771 520L900 465L900 601L771 601L643 601L514 601L386 601L257 601L129 601L0 601Z" fill="#686e70"></path></svg>