<svg id="visual" viewBox="0 0 900 600" width="900" height="600" xmlns="http://www.w3.org/2000/svg" xmlns:xlink="http://www.w3.org/1999/xlink" version="1.1"><path d="M0 251L129 325L257 348L386 360L514 340L643 291L771 229L900 359L900 601L771 601L643 601L514 601L386 601L257 601L129 601L0 601Z" fill="#969fa3"></path><path d="M0 382L129 420L257 311L386 419L514 347L643 290L771 405L900 322L900 601L771 601L643 601L514 601L386 601L257 601L129 601L0 601Z" fill="#878e92"></path><path d="M0 453L129 413L257 477L386 388L514 428L643 460L771 395L900 428L900 601L771 601L643 601L514 601L386 601L257 601L129 601L0 601Z" fill="#777e81"></path><path d="M0 493L129 473L257 492L386 549L514 511L643 521L771 503L900 486L900 601L771 601L643 601L514 601L386 601L257 601L129 601L0 601Z" fill="#686e70"></path></svg>