<svg width="900" height="110" viewBox="0 0 900 110" fill="none" xmlns="http://www.w3.org/2000/svg">
<g filter="url(#filter0_i_1_3)">
<path d="M-9 52.7998L-6.8041 67C15.1959 29.0002 143 -15.9997 225 43C246 9.00026 324 -27 450 31.4998C527 6.99998 593 -11 675 34.1998C697 2.99997 930.5 20.2002 900 84V111H862.5C825 111 750 111 675 111C600 111 525 111 450 111C375 111 300 111 225 111C150 111 75 111 37.5 111H0L-9 52.7998Z" fill="#4db35e"/>
</g>
<defs>
<filter id="filter0_i_1_3" x="-9" y="0.447388" width="911.742" height="120.553" filterUnits="userSpaceOnUse" color-interpolation-filters="sRGB">
<feFlood flood-opacity="0" result="BackgroundImageFix"/>
<feBlend mode="normal" in="SourceGraphic" in2="BackgroundImageFix" result="shape"/>
<feColorMatrix in="SourceAlpha" type="matrix" values="0 0 0 0 0 0 0 0 0 0 0 0 0 0 0 0 0 0 127 0" result="hardAlpha"/>
<feOffset dy="10"/>
<feGaussianBlur stdDeviation="6.05"/>
<feComposite in2="hardAlpha" operator="arithmetic" k2="-1" k3="1"/>
<feColorMatrix type="matrix" values="0 0 0 0 0.20658 0 0 0 0 0.679167 0 0 0 0 0.286889 0 0 0 0.75 0"/>
<feBlend mode="normal" in2="shape" result="effect1_innerShadow_1_3"/>
</filter>
</defs>
</svg>
